<?xml version="1.0" encoding="UTF-8" standalone="no"?>
<!-- Created with Inkscape (http://www.inkscape.org/) -->

<svg
   width="62.946381mm"
   height="62.901741mm"
   viewBox="0 0 62.946381 62.901741"
   version="1.1"
   id="svg5"
   xml:space="preserve"
   xmlns="http://www.w3.org/2000/svg"
   xmlns:svg="http://www.w3.org/2000/svg"><defs
     id="defs2" /><g
     id="layer1"
     transform="translate(-123.08491,-199.826)"><g
       id="g3865"><g
         id="g2660"
         transform="translate(88.413846)"><path
           style="fill:#e8491d;fill-opacity:1;stroke-width:0.264583"
           d="m 43.215838,238.05953 c -2.10583,-0.79428 -3.782081,-2.63568 -4.375016,-4.80605 -0.479822,-1.75633 -0.123927,-6.59769 0.648224,-8.81801 0.910172,-2.6172 1.728295,-3.91378 3.754075,-5.94955 5.049954,-5.07486 12.941099,-5.85083 19.078625,-1.87608 2.867292,1.8569 5.523878,5.57659 6.436307,9.01196 0.295466,1.11246 0.320406,6.90582 0.07237,7.15385 l -7.824735,-7.90462 c -0.393478,-0.21654 -0.625885,-0.14327 -1.12327,0.35411 l -0.627142,0.62714 4.637395,4.62541 4.637394,4.62541 -1.458624,1.34561 c -1.120518,1.0337 -1.79193,1.42557 -2.896555,1.69056 -2.694176,0.64632 -4.660024,0.075 -6.889761,-2.00225 -1.478875,-1.37775 -2.143379,-1.69538 -3.546871,-1.69538 -1.069901,0 -1.550723,0.27251 -3.745815,2.123 -2.069296,1.74444 -4.622011,2.30756 -6.776603,1.49489 z M 39.46779,216.8681 c -3.14459,-1.01874 -5.276201,-4.392 -4.703717,-7.44361 0.09761,-0.52031 0.593358,-1.40443 1.105146,-1.97092 1.251808,-1.3856 3.018198,-1.79191 5.101072,-1.17336 1.918508,0.56973 4.005462,2.61615 4.508856,4.42127 0.452128,1.6213 0.217059,3.64505 -0.542769,4.67277 -1.122392,1.51811 -3.439714,2.15114 -5.468588,1.49385 z m 25.815281,0.1141 c -2.106464,-0.63497 -3.204503,-2.2237 -3.170981,-4.588 0.02739,-1.93173 1.076733,-3.81913 2.891952,-5.20162 1.083923,-0.82553 1.418013,-0.93343 3.163093,-1.02155 1.739125,-0.0878 2.061737,-0.0254 2.968681,0.57483 1.411996,0.93442 2.260719,2.73325 2.042109,4.32817 -0.529375,3.86221 -4.59323,6.90343 -7.894854,5.90817 z m -13.309729,-5.52413 c -1.070155,-0.48615 -2.123742,-1.65866 -2.717464,-3.02419 -0.545203,-1.25394 -0.409466,-4.40225 0.236164,-5.47766 0.810425,-1.3499 1.563704,-2.10287 2.67267,-2.67158 3.019042,-1.54826 6.384804,0.99112 6.757215,5.09813 0.16609,1.83167 -0.380529,3.50997 -1.592934,4.89082 -1.515515,1.72608 -3.296423,2.11995 -5.355651,1.18448 z"
           id="path2664" /><path
           style="fill:#0a0a09;stroke-width:0.264583"
           d="m 87.29869,262.28862 c -1.289177,-0.64401 -1.975758,-2.08916 -1.614368,-3.39799 0.14819,-0.53671 0.508685,-1.23049 0.801097,-1.54176 l 0.531662,-0.56592 -0.729166,-0.85434 -0.729165,-0.85434 -1.041098,1.06619 -1.041101,1.06618 -7.343129,-7.33962 -7.343129,-7.33961 0.663469,-0.69252 c 0.62,-0.64714 0.680611,-1.57242 0.103002,-1.57242 -0.122544,0 -0.545058,-0.42249 -0.938914,-0.93886 l -0.716102,-0.93886 0.958318,-0.98141 0.958321,-0.98141 -5.282941,-5.28343 -5.282943,-5.28344 0.628531,-0.62853 c 0.500073,-0.50007 0.732263,-0.57301 1.136094,-0.35689 0.279162,0.1494 2.680854,2.50204 5.33709,5.22807 l 4.829522,4.95643 1.047292,-1.02265 1.047295,-1.02265 1.268471,1.24939 1.26847,1.2494 0.717566,-0.74898 0.717569,-0.74898 7.206956,7.23191 c 3.963826,3.97755 7.258751,7.29161 7.322055,7.36459 0.06331,0.073 -0.324893,0.58328 -0.862664,1.134 l -0.977765,1.00133 0.775576,0.74305 0.775579,0.74305 0.914789,-0.69775 c 2.172514,-1.65705 5.212511,-0.33844 5.212511,2.26095 0,1.27604 -0.569796,2.045 -4.009467,5.4109 -2.448787,2.39626 -3.490129,3.24081 -4.159544,3.37343 -1.174503,0.23271 -1.087067,0.24436 -2.149739,-0.28651 z m 4.937344,-4.61624 c 3.235399,-3.19858 3.688961,-3.91527 2.947239,-4.65699 -0.174625,-0.17463 -0.500327,-0.3175 -0.723784,-0.3175 -0.630936,0 -6.896216,6.37839 -6.896216,7.02071 0,0.63744 0.470334,1.18137 1.021511,1.18137 0.21258,0 1.855642,-1.45241 3.65125,-3.22759 z m -2.291511,-3.92451 c 0,-0.0957 -0.296383,-0.51885 -0.65863,-0.94042 l -0.658632,-0.7665 -0.851734,0.85174 -0.85173,0.85173 0.767151,0.80073 0.767151,0.80074 0.743212,-0.71205 c 0.408766,-0.39162 0.743212,-0.79031 0.743212,-0.88597 z m -6.676289,-11.03361 -5.884897,-5.88926 -2.847244,2.83842 -2.847243,2.83841 0.790448,0.79045 0.790451,0.79045 1.12749,-1.09823 1.127493,-1.09823 0.789453,0.63642 0.789456,0.63642 -1.172446,1.19463 -1.172442,1.19464 0.766431,0.79998 0.766435,0.79999 1.140457,-1.11928 1.140455,-1.11927 0.716499,0.7165 0.7165,0.7165 -1.119272,1.14045 -1.119275,1.14046 0.799984,0.76643 0.799986,0.76644 1.179758,-1.15785 1.179759,-1.15785 0.6897,0.74421 0.689702,0.74419 -1.134234,1.1557 -1.134234,1.15571 1.305255,1.32518 1.305253,1.32518 2.852611,-2.84376 2.852608,-2.84377 z M 73.09564,238.19438 c 1.238292,-1.2572 1.248143,-1.28072 0.731877,-1.74794 -0.503727,-0.45586 -0.551066,-0.4537 -1.265129,0.0579 -0.408003,0.29229 -1.029295,0.83949 -1.380651,1.21599 -0.620482,0.66489 -0.625002,0.69983 -0.15743,1.21649 0.264769,0.29257 0.556718,0.53194 0.648774,0.53194 0.09206,0 0.732208,-0.57345 1.422559,-1.27434 z"
           id="path2662" /></g></g></g></svg>
