<?xml version="1.0" encoding="UTF-8" standalone="no"?>
<!-- Created with Inkscape (http://www.inkscape.org/) -->

<svg
   width="63.078369mm"
   height="62.838535mm"
   viewBox="0 0 63.078369 62.838535"
   version="1.1"
   id="svg5"
   xml:space="preserve"
   xmlns="http://www.w3.org/2000/svg"
   xmlns:svg="http://www.w3.org/2000/svg"><defs
     id="defs2" /><g
     id="layer1"
     transform="translate(-129.20267,-108.52421)"><g
       id="g2398"
       transform="translate(127.20296,26.238431)"><path
         style="fill:#e8491d;fill-opacity:1;stroke:none;stroke-width:0.499999;stop-color:#000000"
         d="m 20.298966,96.062784 v 6.312836 l 0.456309,0.26018 c 0.44515,-1.06944 1.198864,-2.47373 2.184949,-2.810097 1.643295,-0.560547 1.987536,-0.885954 1.987536,-0.885954 v -3.211525 z"
         id="path2386" /><path
         style="fill:#e8491d;fill-opacity:1;stroke:none;stroke-width:0.499999;stop-color:#000000"
         d="m 46.640717,96.062784 v 6.312836 l -0.456309,0.26018 c -0.44515,-1.06944 -1.198864,-2.47373 -2.184949,-2.810097 -1.643295,-0.560547 -1.987536,-0.885954 -1.987536,-0.885954 v -3.211525 z"
         id="path2388" /><path
         style="fill:#000000;stroke-width:0.264583"
         d="m 19.172876,137.55018 v -7.57413 l -1.858294,2.40117 c -2.737986,3.53785 -4.387648,4.53114 -7.5344148,4.53663 -3.089024,0.005 -5.667297,-1.60649 -7.044695,-4.40415 -0.627456,-1.27444 -0.628315,-1.28979 -0.705086,-12.5907 -0.07255,-10.68015 -0.04835,-11.37915 0.431579,-12.46411 0.628135,-1.42001 2.059294,-2.54875 3.471839,-2.73821 l 1.068238,-0.14328 v 0.93986 c 0,0.82725 -0.09424,0.96055 -0.786597,1.11262 -0.432629,0.095 -1.087473,0.53034 -1.455209,0.96736 -0.591977,0.70353 -0.66861,1.03488 -0.66861,2.89097 v 2.09637 h 2.23942 2.239419 l 0.670997,-0.98746 c 0.369049,-0.54311 0.671731,-1.10866 0.672627,-1.25677 9e-4,-0.14813 0.1932268,-0.6265 0.4274008,-1.06307 0.234174,-0.43656 0.506295,-1.07794 0.604714,-1.42527 0.168758,-0.59559 0.204669,-0.60581 0.630932,-0.17954 0.948968,0.94896 0.505789,3.52253 -0.944369,5.48401 -0.518311,0.70106 -0.518103,0.72509 0.04701,5.40793 0.312201,2.58706 0.610879,4.74698 0.663728,4.79983 0.05285,0.0528 0.353571,-0.32053 0.66827,-0.82972 0.798801,-1.29249 4.150705,-4.34843 5.955924,-5.43003 2.19309,-1.314 5.768344,-2.57609 8.348923,-2.94723 1.236927,-0.1779 2.336433,-0.4557 2.443345,-0.61734 0.412576,-0.62376 0.16962,-1.12551 -0.696687,-1.43877 -1.250948,-0.45235 -2.966294,-2.39542 -3.346016,-3.79023 -0.172236,-0.63266 -0.348859,-1.2822 -0.392494,-1.44341 -0.04363,-0.16121 -0.436999,-0.36464 -0.874146,-0.45207 -0.437147,-0.0874 -1.219626,-0.53196 -1.738842,-0.98783 -1.505749,-1.32207 -1.831824,-3.56344 -0.757044,-5.20376 0.49862,-0.760996 1.952265,-1.662186 2.681134,-1.662186 0.481708,0 0.564084,-0.15455 0.564084,-1.05833 v -1.05834 H 22.188903 20.17785 l 0.100779,-4.43177 c 0.08659,-3.8078 0.178782,-4.5994 0.654797,-5.62239 0.657441,-1.4129 1.893683,-2.63217 3.531113,-3.48264 1.169186,-0.60727 1.331174,-0.61841 8.995834,-0.61841 7.431365,0 7.864215,0.0273 9.037195,0.56948 0.677593,0.31321 1.709682,1.0617 2.293528,1.66331 1.609836,1.65883 1.898444,2.83492 1.898444,7.73622 v 4.1862 h -1.984376 -1.984375 v 1.00063 c 0,0.89569 0.07479,1.00681 0.71315,1.05965 0.392232,0.0325 1.106065,0.32632 1.586291,0.65302 2.812352,1.913236 1.91869,6.608426 -1.375447,7.226416 -0.749972,0.14069 -0.899903,0.29995 -1.053581,1.11912 -0.394449,2.1026 -1.844387,3.91934 -3.773017,4.72752 -0.472943,0.19818 -0.859896,0.45503 -0.859896,0.57079 0,0.66196 0.887646,1.05874 3.283186,1.46761 5.379746,0.91823 10.19927,3.65587 13.134975,7.46109 0.60978,0.79039 1.19153,1.43707 1.292776,1.43707 0.101245,0 0.426291,-2.05383 0.722325,-4.56406 l 0.53824,-4.56407 -0.927775,-1.52682 c -0.752793,-1.23886 -0.942195,-1.83767 -1.004242,-3.175 -0.04206,-0.9065 -0.307822,-2.30302 -0.590584,-3.10338 -0.507659,-1.43693 -0.51769,-1.44619 -0.798463,-0.73702 -0.156392,0.395 -0.474612,1.37267 -0.707154,2.17259 -0.55843,1.92093 -1.566262,2.79776 -3.215765,2.79776 -1.585671,0 -2.731685,-1.11651 -2.731685,-2.66137 0,-2.19277 1.279906,-3.33227 3.453696,-3.07482 l 1.275279,0.15104 0.567624,-1.70571 0.567623,-1.70572 -0.854297,-2.579306 c -0.469863,-1.41863 -0.903637,-2.71396 -0.963943,-2.87852 -0.09165,-0.25009 1.177681,-0.89142 1.764313,-0.89142 0.09629,0 0.327589,0.59504 0.513982,1.32231 0.186397,0.72728 0.426977,1.37676 0.534628,1.44329 0.107648,0.0665 0.400455,-0.52852 0.650679,-1.32232 0.494811,-1.56972 0.501748,-1.57449 1.687883,-1.161 l 0.809763,0.28229 -0.902573,2.68011 c -0.496417,1.47407 -0.898687,2.924616 -0.893935,3.223446 0.01638,1.03071 1.015013,3.45909 1.370624,3.33297 0.619445,-0.21969 3.964776,-0.32517 4.878205,-0.15381 1.038542,0.19483 2.565583,1.44355 3.214902,2.62896 0.403259,0.73619 0.449506,1.99111 0.449506,12.1977 v 11.37709 l -0.742302,1.5118 c -1.379646,2.80986 -3.974119,4.44132 -7.062907,4.44132 -3.088243,0 -4.917863,-1.14702 -7.749982,-4.85861 l -1.642726,-2.15285 -0.07021,7.60677 -0.0702,7.60677 H 33.456318 19.172876 Z m 10.31875,-1.65255 v -7.37461 l 1.322917,-1.65495 c 0.727604,-0.91022 1.322917,-1.71209 1.322917,-1.78194 0,-0.0698 -1.566175,-2.08442 -3.480388,-4.47684 -2.083713,-2.60426 -3.616637,-4.29756 -3.819908,-4.21956 -0.186738,0.0717 -0.852985,0.26711 -1.480551,0.43433 -0.627565,0.16723 -2.033997,0.76758 -3.125404,1.33411 -3.207725,1.66508 -5.714351,3.99288 -7.55728,7.01814 -0.931069,1.52839 -0.946662,1.59962 -0.782367,3.57391 l 0.167636,2.01444 -0.857397,0.17148 c -0.471568,0.0943 -0.928227,0.0569 -1.014799,-0.0832 -0.08657,-0.14008 -0.5626828,-3.83241 -1.0580268,-8.20519 l -0.900624,-7.95051 h -2.068363 -2.068362 v 7.94039 c 0,7.53036 0.02887,8.0018 0.55908,9.12977 0.307494,0.65417 0.910725,1.48528 1.340512,1.84693 1.043385,0.87794 3.429266,1.55738 4.6588488,1.32671 2.005744,-0.37628 2.911986,-1.11788 5.756469,-4.71064 l 2.76634,-3.49406 v -2.44767 -2.44768 h 1.058333 1.058334 v 10.71563 10.71562 h 4.101042 4.101041 z m 16.271876,-3.40721 V 121.8409 l 0.992187,4e-5 0.992188,5e-5 v 2.34924 2.34924 l 2.149893,2.74399 c 3.165234,4.03991 4.110921,4.94596 5.634596,5.39845 0.719063,0.21353 1.672733,0.38563 2.119262,0.38244 1.969305,-0.0141 4.598247,-2.12537 5.158418,-4.14265 0.167767,-0.60417 0.281307,-4.07152 0.282188,-8.61769 l 0.0015,-7.60677 h -2.116667 c -1.164167,0 -2.117736,0.0893 -2.11904,0.19844 -0.0013,0.10914 -0.417468,3.65125 -0.924801,7.87135 -0.507333,4.22011 -0.922983,7.82714 -0.923666,8.01564 -7.93e-4,0.25144 -0.265485,0.29494 -0.993431,0.16334 -0.545703,-0.0987 -1.00562,-0.19335 -1.022035,-0.21043 -0.0164,-0.0171 0.06703,-0.90737 0.185433,-1.97843 0.232966,-2.10733 0.315368,-1.85129 -1.508776,-4.68822 -1.08935,-1.69417 -3.77653,-4.19746 -5.799828,-5.40294 -1.65499,-0.98603 -5.629156,-2.44345 -6.014138,-2.20552 -0.126825,0.0784 -2.484617,2.95767 -5.239531,6.39842 l -5.008938,6.2559 v 7.08305 7.08305 l 7.077604,-0.0705 7.077605,-0.0705 z m -12.252953,7.67297 c 0.07766,-0.93831 0.135999,-0.99665 1.074307,-1.07431 l 0.992187,-0.0821 v 1.07431 1.0743 h -1.074306 -1.074304 z m -0.05017,-4.16719 c 0,-0.90399 0.02519,-0.92604 1.058333,-0.92604 1.033134,0 1.058333,0.022 1.058333,0.92604 0,0.90399 -0.02519,0.92604 -1.058333,0.92604 -1.033135,0 -1.058333,-0.022 -1.058333,-0.92604 z m 0,-3.96875 c 0,-0.90399 0.02519,-0.92604 1.058333,-0.92604 1.033134,0 1.058333,0.022 1.058333,0.92604 0,0.90399 -0.02519,0.92604 -1.058333,0.92604 -1.033135,0 -1.058333,-0.022 -1.058333,-0.92604 z m 3.310077,-12.52449 c 2.041891,-2.56332 2.5195,-3.31508 2.224696,-3.50167 -0.545539,-0.3453 -0.570238,-0.33311 -1.379373,0.68097 -0.97608,1.22331 -2.517474,1.98373 -4.021066,1.98373 -1.635684,0 -2.730273,-0.50506 -4.010425,-1.85046 -0.823579,-0.86556 -1.174835,-1.07291 -1.504775,-0.88826 -0.360799,0.20191 0.04411,0.83255 2.503612,3.89936 2.402014,2.99512 2.993239,3.59339 3.260629,3.29945 0.179637,-0.19748 1.496653,-1.82788 2.926702,-3.62312 z m -1.127265,-3.69248 c 0.768183,-0.72117 0.896654,-1.4279 0.465638,-2.56156 -0.257959,-0.67849 -0.297254,-0.68785 -2.569404,-0.61254 l -2.307441,0.0765 -0.382233,1.00616 c -0.353325,0.93007 -0.342223,1.06015 0.14679,1.71979 1.085141,1.4638 3.295031,1.64055 4.64665,0.37166 z m 27.450522,-5.09938 c 0,-1.99204 -0.251585,-2.7503 -1.155446,-3.48245 -0.81329,-0.65879 -0.961221,-0.58437 -0.961221,0.48359 0,0.73046 -0.209706,1.16221 -0.899583,1.85209 -0.689878,0.68987 -1.121627,0.89958 -1.852084,0.89958 -0.523875,0 -0.9525,0.0612 -0.9525,0.136 0,0.0748 0.267891,0.54958 0.595313,1.05506 l 0.595312,0.91905 2.315104,0.003 2.315105,0.003 v -1.86948 z m -24.426588,-0.66839 c 1.405625,-1.04238 1.937004,-2.13637 1.937004,-3.98788 v -1.68498 l -7.077605,0.0705 -7.077604,0.0705 -0.08107,0.97464 c -0.189651,2.27997 1.066615,4.39273 2.952859,4.96603 0.457808,0.13914 2.580103,0.22863 4.716208,0.19887 3.477271,-0.0485 3.961958,-0.11206 4.630209,-0.60761 z m 11.980913,-1.94088 c 0.529119,-0.98867 -0.343157,-1.86095 -1.331825,-1.33183 -0.575234,0.30786 -0.668716,1.04811 -0.192501,1.52433 0.476216,0.47621 1.21647,0.38273 1.524326,-0.1925 z m 8.1861,-0.0853 c 0.281749,-0.75796 0.113922,-1.19328 -0.540065,-1.40085 -0.988449,-0.31372 -1.709904,0.93704 -0.968277,1.67867 0.507899,0.50789 1.268338,0.36784 1.508342,-0.27782 z m -34.369593,-5.64022 c 0,-1.9528 -0.01468,-1.99781 -0.595313,-1.82391 -0.804952,0.24109 -1.508305,1.16481 -1.515469,1.99028 -0.0071,0.81782 0.875657,1.83583 1.591923,1.83583 0.469713,0 0.518859,-0.18964 0.518859,-2.0022 z m 19.630234,1.53918 c 0.618594,-0.72026 0.743334,-1.30823 0.453766,-2.13889 -0.217038,-0.62259 -1.146995,-1.36684 -1.707907,-1.36684 -0.06591,0 -0.119843,0.89297 -0.119843,1.98438 0,1.75242 0.05706,1.98437 0.488159,1.98437 0.268489,0 0.66711,-0.20836 0.885825,-0.46302 z m -3.49065,-4.431766 v -3.04271 h -7.14375 -7.143751 v 2.86632 c 0,1.576476 0.07937,2.945696 0.17639,3.042706 0.09701,0.097 3.3117,0.17639 7.14375,0.17639 h 6.967361 z m -11.895712,0.541856 c -0.527765,-0.635906 -0.08385,-1.467896 0.783211,-1.467896 0.531641,0 0.809464,0.16186 0.930072,0.54186 0.202853,0.63914 -0.273521,1.310216 -0.930072,1.310216 -0.255405,0 -0.607851,-0.17288 -0.783211,-0.38418 z m 8.21269,0.0128 c -0.561564,-0.676636 -0.240762,-1.348386 0.643938,-1.348386 0.701527,0 0.790125,0.089 0.790125,0.79375 0,0.603246 -0.132556,0.812686 -0.55232,0.872656 -0.303773,0.0434 -0.700559,-0.0997 -0.881743,-0.31802 z m 7.871932,-8.967246 c -0.122286,-3.6731 -0.398989,-4.42109 -2.162948,-5.84684 l -1.016746,-0.8218 h -7.998474 -7.998473 l -0.930516,0.6376 c -0.511781,0.35068 -1.217433,1.05578 -1.568114,1.56689 -0.577577,0.84181 -0.645803,1.24878 -0.72477,4.32334 l -0.08717,3.39405 h 11.297759 11.297759 z m -12.390994,0.21053 c 0,-0.88195 -0.0441,-0.92604 -0.926042,-0.92604 -0.903994,0 -0.926041,-0.0252 -0.926041,-1.05834 0,-1.02959 0.02471,-1.05833 0.910069,-1.05833 0.860649,0 0.914529,-0.0539 0.992187,-0.99219 0.07766,-0.9383 0.135999,-0.99664 1.074306,-1.0743 l 0.992188,-0.0821 v 1.0743 1.07431 h 1.058333 1.058334 v 1.05833 1.05834 h -1.058334 c -1.033134,0 -1.058333,0.022 -1.058333,0.92604 0,0.90399 -0.02519,0.92604 -1.058333,0.92604 -1.033135,0 -1.058334,-0.0221 -1.058334,-0.92604 z"
         id="path2390" /><path
         style="fill:#e8491d;fill-opacity:1;stroke:none;stroke-width:0.511634;stop-color:#000000"
         d="m 6.8509495,91.905564 v 15.466466 c 0,0 0.1023909,2.45659 2.0241692,2.45659 1.9217783,0 2.2352943,-2.31187 2.2352943,-2.31187 v -4.55986 c 0,0 1.95985,-1.27692 1.95985,-5.598346 0,-4.321422 -6.2193135,-5.45298 -6.2193135,-5.45298 z"
         id="path2392" /></g></g></svg>
