<?xml version="1.0" encoding="UTF-8" standalone="no"?>
<!-- Created with Inkscape (http://www.inkscape.org/) -->

<svg
   width="19.848549mm"
   height="24.597464mm"
   viewBox="0 0 19.848549 24.597464"
   version="1.1"
   id="svg5"
   xml:space="preserve"
   xmlns:inkscape="http://www.inkscape.org/namespaces/inkscape"
   xmlns:sodipodi="http://sodipodi.sourceforge.net/DTD/sodipodi-0.dtd"
   xmlns="http://www.w3.org/2000/svg"
   xmlns:svg="http://www.w3.org/2000/svg"><sodipodi:namedview
     id="namedview7"
     pagecolor="#ffffff"
     bordercolor="#000000"
     borderopacity="0.25"
     inkscape:showpageshadow="2"
     inkscape:pageopacity="0.0"
     inkscape:pagecheckerboard="0"
     inkscape:deskcolor="#d1d1d1"
     inkscape:document-units="mm"
     showgrid="false" /><defs
     id="defs2" /><g
     inkscape:label="Layer 1"
     inkscape:groupmode="layer"
     id="layer1"
     transform="translate(-77.743553,-90.839856)"><g
       id="g3799"
       transform="translate(32.041277,48.675791)"><g
         id="g3809"
         transform="translate(-2.3982682,-30.992894)"><path
           id="path833"
           style="fill:#4d4d4d;stroke:none;stroke-width:0.499999;stop-color:#000000"
           d="m 57.578519,73.156959 c -6.326106,0 -9.477975,5.076597 -9.477975,8.426876 0,3.35028 2.069703,7.19624 3.646441,9.915157 1.576739,2.718918 4.115247,6.255432 5.831534,6.255432 1.716287,0 4.254795,-3.536514 5.831533,-6.255432 1.576739,-2.718917 3.646441,-6.564877 3.646441,-9.915157 0,-3.350279 -3.151868,-8.426876 -9.477974,-8.426876 z m 0,6.027023 c 1.796874,2.7e-5 3.253521,1.456674 3.253548,3.253548 2.58e-4,1.797075 -1.456473,3.254038 -3.253548,3.254065 -1.797075,-2.7e-5 -3.253806,-1.45699 -3.253548,-3.254065 2.7e-5,-1.796874 1.456674,-3.253521 3.253548,-3.253548 z"
           sodipodi:nodetypes="ssszsssccccc" /><g
           id="g1505"><circle
             style="fill:#ff6600;stroke:none;stroke-width:0.517204;stop-color:#000000"
             id="path337"
             cx="63.862114"
             cy="93.651398"
             r="3.2744243" /><ellipse
             style="fill:#ff6600;stroke:none;stroke-width:0.188796;stop-color:#000000"
             id="circle443"
             cx="85.553192"
             cy="68.57444"
             rx="1.0008645"
             ry="1.4274402"
             transform="rotate(15)" /><ellipse
             style="fill:#ff6600;stroke:none;stroke-width:0.160036;stop-color:#000000"
             id="ellipse445"
             cx="102.81843"
             cy="44.092091"
             rx="0.84840131"
             ry="1.209996"
             transform="rotate(30)" /><ellipse
             style="fill:#ff6600;stroke:none;stroke-width:0.188796;stop-color:#000000"
             id="ellipse447"
             cx="-37.471054"
             cy="101.53868"
             rx="1.0008645"
             ry="1.4274402"
             transform="matrix(-0.96592583,0.25881905,0.25881905,0.96592583,0,0)" /><ellipse
             style="fill:#ff6600;stroke:none;stroke-width:0.160036;stop-color:#000000"
             id="ellipse449"
             cx="-7.4820933"
             cy="107.77413"
             rx="0.84840131"
             ry="1.209996"
             transform="matrix(-0.8660254,0.5,0.5,0.8660254,0,0)" /><path
             style="fill:none;stroke:#ffffff;stroke-width:0.499999;stop-color:#000000"
             d="m 60.59064,93.600266 h 1.901786 l 0.651865,-1.129059 1.257604,2.178238 0.618358,-1.071028 h 2.118918"
             id="path528"
             sodipodi:nodetypes="cccccc" /></g></g></g></g></svg>
