<?xml version="1.0" encoding="UTF-8" standalone="no"?>
<!-- Created with Inkscape (http://www.inkscape.org/) -->

<svg
   width="13.363647mm"
   height="23.862226mm"
   viewBox="0 0 13.363647 23.862227"
   version="1.1"
   id="svg5"
   xml:space="preserve"
   xmlns:inkscape="http://www.inkscape.org/namespaces/inkscape"
   xmlns:sodipodi="http://sodipodi.sourceforge.net/DTD/sodipodi-0.dtd"
   xmlns="http://www.w3.org/2000/svg"
   xmlns:svg="http://www.w3.org/2000/svg"><sodipodi:namedview
     id="namedview7"
     pagecolor="#ffffff"
     bordercolor="#000000"
     borderopacity="0.25"
     inkscape:showpageshadow="2"
     inkscape:pageopacity="0.0"
     inkscape:pagecheckerboard="0"
     inkscape:deskcolor="#d1d1d1"
     inkscape:document-units="mm"
     showgrid="false" /><defs
     id="defs2" /><g
     inkscape:label="Layer 1"
     inkscape:groupmode="layer"
     id="layer1"
     transform="translate(-113.82104,-91.621634)"><g
       id="g3789"
       transform="translate(37.160348,17.158199)"
       inkscape:export-filename="confianca.svg"
       inkscape:export-xdpi="96"
       inkscape:export-ydpi="96"><g
         id="g1687"
         transform="matrix(0.58818393,0,0,0.58818393,45.817199,27.177366)"><circle
           style="fill:#ff6600;stroke:none;stroke-width:0.517204;stop-color:#000000"
           id="circle1675"
           cx="63.862114"
           cy="93.651398"
           r="3.2744243" /><ellipse
           style="fill:#ff6600;stroke:none;stroke-width:0.188796;stop-color:#000000"
           id="ellipse1677"
           cx="85.553192"
           cy="68.57444"
           rx="1.0008645"
           ry="1.4274402"
           transform="rotate(15)" /><ellipse
           style="fill:#ff6600;stroke:none;stroke-width:0.160036;stop-color:#000000"
           id="ellipse1679"
           cx="102.81843"
           cy="44.092091"
           rx="0.84840131"
           ry="1.209996"
           transform="rotate(30)" /><ellipse
           style="fill:#ff6600;stroke:none;stroke-width:0.188796;stop-color:#000000"
           id="ellipse1681"
           cx="-37.471054"
           cy="101.53868"
           rx="1.0008645"
           ry="1.4274402"
           transform="matrix(-0.96592583,0.25881905,0.25881905,0.96592583,0,0)" /><ellipse
           style="fill:#ff6600;stroke:none;stroke-width:0.160036;stop-color:#000000"
           id="ellipse1683"
           cx="-7.4820933"
           cy="107.77413"
           rx="0.84840131"
           ry="1.209996"
           transform="matrix(-0.8660254,0.5,0.5,0.8660254,0,0)" /><path
           style="fill:none;stroke:#ffffff;stroke-width:0.499999;stop-color:#000000"
           d="m 60.59064,93.600266 h 1.901786 l 0.651865,-1.129059 1.257604,2.178238 0.618358,-1.071028 h 2.118918"
           id="path1685"
           sodipodi:nodetypes="cccccc" /></g><g
         id="g3776"><path
           id="path1617"
           style="fill:#f0c862;fill-opacity:1;stroke:none;stroke-width:0.499999;stop-color:#000000"
           inkscape:transform-center-x="0.39407054"
           inkscape:transform-center-y="-1.7620787"
           d="m 85.927819,66.131149 a 2.4157685,2.4157685 0 0 0 -1.845047,0.09581 l -1.340902,0.63921 a 5.2370658,5.2370658 0 0 1 -3.472478,0.365645 l -1.444381,-0.346237 a 2.4157685,2.4157685 0 0 0 -2.686359,1.194985 l -0.708644,1.305291 a 5.2370658,5.2370658 0 0 1 -2.595748,2.336585 l -1.371771,0.569623 a 2.4157685,2.4157685 0 0 0 -1.470034,2.54539 l 0.194237,1.472388 a 5.2370658,5.2370658 0 0 1 -0.726853,3.416202 l -0.775558,1.267111 a 2.4157685,2.4157685 0 0 0 0.307409,2.923163 l 1.021819,1.078227 a 5.2370658,5.2370658 0 0 1 1.420266,3.189455 l 0.118046,1.480886 a 2.4157685,2.4157685 0 0 0 1.966559,2.184488 l 1.45984,0.271921 a 5.2370658,5.2370658 0 0 1 3.024708,1.745545 l 0.965106,1.129388 a 2.4157685,2.4157685 0 0 0 2.875477,0.61173 l 1.340901,-0.63921 a 5.2370658,5.2370658 0 0 1 3.473584,-0.365398 l 1.44438,0.346237 a 2.4157685,2.4157685 0 0 0 2.685255,-1.195232 l 0.708643,-1.305291 a 5.2370658,5.2370658 0 0 1 2.595748,-2.336585 l 1.371771,-0.569624 a 2.4157685,2.4157685 0 0 0 1.470034,-2.545389 l -0.193131,-1.472141 a 5.2370658,5.2370658 0 0 1 0.725748,-3.416449 l 0.775557,-1.267111 a 2.4157685,2.4157685 0 0 0 -0.307409,-2.923163 l -1.021819,-1.078228 a 5.2370658,5.2370658 0 0 1 -1.420266,-3.189454 l -0.11694,-1.480639 a 2.4157685,2.4157685 0 0 0 -1.967665,-2.184735 l -1.459839,-0.271921 a 5.2370658,5.2370658 0 0 1 -3.024709,-1.745545 l -0.965106,-1.129388 a 2.4157685,2.4157685 0 0 0 -1.030429,-0.707536 z m -1.424606,5.66418 A 9.34753,9.34753 0 0 1 91.585694,82.958201 9.34753,9.34753 0 0 1 80.42307,90.039577 9.34753,9.34753 0 0 1 73.341446,78.878058 9.34753,9.34753 0 0 1 84.503213,71.795329 Z"
           transform="matrix(0.44517833,-0.09955967,0.09955967,0.44517833,38.562879,53.586214)" /><path
           style="fill:#f0c862;fill-opacity:1;stroke:none;stroke-width:0.499999;stop-color:#000000"
           d="m 78.670794,88.876025 -1.522913,8.368866 3.87009,-2.001959 2.643384,3.082729 1.42964,-8.507129 c 0,0 -1.24854,0.562565 -2.42688,0.274942 -1.178327,-0.287626 -1.76558,-0.73318 -2.464244,-1.038043 -0.698664,-0.304863 -1.529077,-0.179406 -1.529077,-0.179406 z"
           id="path3460"
           sodipodi:nodetypes="cccccssc" /><path
           style="fill:#f0c862;fill-opacity:1;stroke:none;stroke-width:0.499999;stop-color:#000000"
           d="m 87.589145,88.957337 -0.48998,3.220781 2.92517,1.144878 -1.46866,-4.914831 c 0,0 -0.0971,0.44164 -0.96653,0.549172 z"
           id="path3462" /></g></g></g></svg>
