<?xml version="1.0" encoding="UTF-8" standalone="no"?>
<!-- Created with Inkscape (http://www.inkscape.org/) -->

<svg
   width="63.764896mm"
   height="64.081993mm"
   viewBox="0 0 63.764896 64.081993"
   version="1.1"
   id="svg5"
   xml:space="preserve"
   xmlns="http://www.w3.org/2000/svg"
   xmlns:svg="http://www.w3.org/2000/svg"><defs
     id="defs2" /><g
     id="layer1"
     transform="translate(-121.43541,-592.10669)"><g
       id="g3892"><g
         id="g2684"
         transform="translate(88.172087)"><path
           style="fill:#e8491d;fill-opacity:1;stroke-width:0.264583"
           d="m 81.24316,645.23075 4.825325,-4.68434 1.509884,1.52581 1.509887,1.52581 -2.331728,2.32092 -2.428547,2.40783 z M 62.697433,620.36073 c -1.055455,-1.0512 -1.918658,-2.07282 -1.918229,-2.27025 5.29e-4,-0.19743 0.596095,-0.91787 1.3237,-1.60098 0.727604,-0.68311 1.322916,-1.35045 1.322916,-1.48298 0,-0.13253 -0.672862,-0.86716 -1.49525,-1.63253 l -1.495251,-1.39157 2.073347,-2.1243 c 1.140341,-1.16836 2.277118,-2.1243 2.526175,-2.1243 0.249055,0 0.800241,0.38696 1.224855,0.8599 1.827776,2.03581 1.748366,2.02363 3.24286,0.49735 0.73094,-0.74649 1.4756,-1.35725 1.654797,-1.35725 0.467349,0 4.174717,3.74616 4.174717,4.21839 0,0.21735 -0.603419,1.00619 -1.340932,1.75298 l -1.340932,1.3578 1.340932,1.3339 c 0.737513,0.73364 1.340932,1.49858 1.340932,1.69985 0,0.49024 -3.743875,4.18927 -4.239556,4.18878 -0.214858,-2.2e-4 -0.978398,-0.59931 -1.696752,-1.33131 l -1.306097,-1.33092 -1.348055,1.33131 c -0.741431,0.73222 -1.522904,1.32818 -1.736611,1.32436 -0.213704,-0.004 -1.252109,-0.86702 -2.307566,-1.91823 z"
           id="path2688" /><path
           style="fill:#0b0b0b;stroke-width:0.264583"
           d="M 45.083787,644.34088 C 38.58253,637.82458 33.26332,632.43112 33.26332,632.3554 c 0,-0.0757 1.083013,-1.22521 2.406695,-2.55442 l 2.406694,-2.41674 -0.944161,-1.23692 c -1.196197,-1.56711 -1.580359,-2.99187 -1.41947,-5.26449 0.107532,-1.51894 0.275712,-2.01526 1.077186,-3.17897 0.522368,-0.75845 1.368336,-1.78471 1.87993,-2.28056 l 0.930171,-0.90156 0.701864,0.77323 c 1.443299,1.59005 4.666324,4.87427 4.783452,4.87427 0.06686,0 6.393633,-6.31407 14.059496,-14.03127 l 13.937935,-14.03128 2.313964,2.25732 c 1.27268,1.24152 2.344242,2.25725 2.38125,2.25718 0.03701,-7e-5 0.72213,-0.2497 1.522494,-0.55473 1.683872,-0.64173 3.104169,-0.55574 4.758235,0.2881 1.273445,0.64967 8.132252,7.58471 8.851818,8.95021 0.685877,1.30157 0.701286,3.55126 0.03447,5.03221 l -0.510685,1.13419 2.296779,2.29678 2.296781,2.29678 -8.130087,8.13326 -8.130088,8.13327 7.458139,7.48798 c 4.853474,4.8729 7.600349,7.82836 7.865345,8.46258 0.928116,2.22129 0.256845,5.05293 -1.508577,6.36367 -1.727369,1.2825 -3.590745,1.5542 -5.298162,0.77254 -0.614662,-0.2814 -3.883875,-3.34271 -8.535358,-7.99257 l -7.539114,-7.53648 -8.153033,8.14985 -8.153032,8.14985 z m 48.41752,8.50326 c 1.063262,-1.05214 1.349145,-2.39984 0.768588,-3.62327 -0.234299,-0.49375 -1.170953,-1.63606 -2.081453,-2.53846 l -1.655453,-1.64074 -2.365021,2.37603 -2.36502,2.37603 1.709872,1.67506 c 2.155055,2.11118 2.498797,2.30663 3.958834,2.25098 0.945541,-0.036 1.363334,-0.21628 2.029653,-0.87563 z m -29.153562,-7.0062 7.400671,-7.40421 -1.310645,-1.33066 -1.310646,-1.33065 -4.504298,4.47538 c -2.477365,2.46146 -4.885338,4.66574 -5.351055,4.89841 -1.039924,0.51953 -2.456281,0.54246 -3.614544,0.0585 -0.802506,-0.33531 -4.037254,-3.51235 -9.316937,-9.15073 -1.153219,-1.23156 -3.161986,-3.34803 -4.463924,-4.70326 l -2.36716,-2.46405 -1.667735,1.65291 c -0.917255,0.9091 -1.667735,1.73056 -1.667735,1.82546 0,0.19358 20.429262,20.84643 20.639273,20.86516 0.07373,0.007 3.464364,-3.31994 7.534735,-7.39226 z m 16.815872,-10.17877 -7.93177,-7.93177 -0.806894,0.77305 -0.806895,0.77306 6.411775,6.43135 6.411778,6.43135 -0.720307,0.72031 -0.720307,0.7203 -6.422364,-6.41834 -6.42236,-6.41835 -0.847392,0.87428 -0.847394,0.87429 7.96113,7.89602 7.96113,7.89603 2.35582,-2.34491 2.355819,-2.3449 z m -18.086999,3.24056 4.579866,-4.55285 -0.775499,-0.80497 c -0.719582,-0.74692 -0.818023,-1.10548 -1.365216,-4.97261 -0.324345,-2.29221 -0.516414,-4.24096 -0.42682,-4.33055 0.08959,-0.0896 2.043991,0.1 4.343111,0.42132 3.863089,0.5399 4.240999,0.64224 4.981395,1.34898 l 0.801177,0.76475 5.405038,-5.40986 5.405038,-5.40987 -0.649965,-0.69484 c -1.133901,-1.21217 -1.54196,-1.30703 -2.33876,-0.54365 l -0.708922,0.67919 -5.802998,-5.8075 -5.802998,-5.80749 0.738601,-0.77094 0.738597,-0.77093 -1.382469,-1.48538 c -0.760359,-0.81695 -1.514295,-1.48537 -1.67541,-1.48537 -0.161118,0 -5.345356,5.05346 -11.520533,11.22992 L 46.39226,621.727 l 1.297742,1.40393 c 1.208341,1.30722 7.831338,8.33605 10.378006,11.01393 0.618463,0.65033 1.124479,1.24631 1.124479,1.3244 0,0.0781 -0.9525,1.11782 -2.116667,2.31052 -1.716828,1.75891 -2.116667,2.32225 -2.116667,2.98218 0,1.74696 0.876549,2.63818 2.628694,2.6727 0.831072,0.0164 1.301078,-0.37195 5.488771,-4.53493 z m -6.816974,-9.87238 c -3.843967,-3.86484 -7.021086,-7.11843 -7.060261,-7.23019 -0.03918,-0.11177 0.207561,-0.46512 0.548307,-0.78524 l 0.619535,-0.58202 6.992318,7.02273 c 3.845775,3.8625 7.024373,7.1147 7.063547,7.22711 0.03918,0.1124 -0.209039,0.46767 -0.551592,0.78948 l -0.622822,0.58511 z m 0.341421,-5.76092 -4.570124,-4.57573 0.662601,-0.62248 c 0.826376,-0.77634 0.46771,-1.04146 5.802186,4.28882 l 4.19803,4.19472 -0.606132,0.6452 c -0.333372,0.35486 -0.675949,0.64519 -0.761283,0.64519 -0.08533,0 -2.211707,-2.05907 -4.725278,-4.57572 z m -3.256161,15.75437 c 0.282244,-0.5457 1.1156,-1.58056 1.851901,-2.29968 l 1.338728,-1.3075 -1.649722,-1.73521 c -0.907349,-0.95437 -3.613518,-3.81382 -6.013712,-6.35434 -2.400192,-2.54052 -5.494417,-5.79551 -6.87605,-7.23331 l -2.512064,-2.6142 -0.733666,0.87881 c -0.789164,0.9453 -1.253329,2.26127 -1.246379,3.53366 0.0078,1.43598 0.975757,2.97512 3.611166,5.74233 9.574403,10.05326 11.340055,11.93097 11.418699,12.1434 0.147693,0.39894 0.276942,0.2788 0.811099,-0.75396 z m 33.416566,-15.61042 7.324812,-7.34218 -3.047394,-3.15156 -3.047397,-3.15156 -1.352322,1.35232 -1.35232,1.35232 1.765821,1.79924 1.765821,1.79924 -6.082458,6.08819 -6.082459,6.08819 1.253995,1.254 c 0.689698,0.68969 1.315892,1.25399 1.391542,1.25399 0.07565,0 3.43371,-3.30398 7.462359,-7.34219 z m -17.256697,5.09978 c 0.786866,-0.79676 1.378111,-1.49775 1.313879,-1.55775 -0.06424,-0.06 -0.860931,-0.19369 -1.770436,-0.29711 l -1.653646,-0.18802 0.0029,0.75358 c 0.0043,1.10674 0.304411,2.73796 0.503766,2.73796 0.09507,0 0.816658,-0.6519 1.603526,-1.44866 z m 19.86806,-20.12081 c 1.294424,1.35627 1.45329,1.44907 1.760807,1.02851 0.492739,-0.67386 0.41151,-2.48744 -0.152455,-3.40383 -0.911574,-1.48122 -7.013173,-7.50011 -8.033846,-7.92494 -1.227645,-0.51097 -2.40176,-0.52201 -3.328929,-0.0313 -0.392956,0.20798 -1.903296,1.57764 -3.356311,3.04369 l -2.641846,2.66554 4.357976,4.36399 4.357976,4.36399 2.806917,-2.79821 2.806917,-2.79822 z m -6.714773,0.18937 -0.981527,-1.00517 0.743801,-0.71261 0.743805,-0.71261 0.981525,1.00518 0.981527,1.00517 -0.743802,0.71261 -0.743804,0.71261 z m -5.213374,-5.2147 -0.901605,-0.93022 0.718212,-0.71822 0.718214,-0.71821 0.978924,0.97892 0.978924,0.97893 -0.62897,0.66951 c -0.345935,0.36823 -0.703924,0.66951 -0.795534,0.66951 -0.09161,0 -0.572283,-0.4186 -1.068165,-0.93022 z m -2.406825,-3.93439 c 1.329878,-1.35504 1.295382,-1.53278 -0.644556,-3.32095 l -1.23779,-1.14096 -1.35912,1.36537 -1.359116,1.36536 1.455208,1.40801 c 0.800364,0.77441 1.579248,1.42502 1.730848,1.44581 0.151604,0.0208 0.788141,-0.4844 1.414526,-1.12264 z"
           id="path2686" /></g></g></g></svg>
