<?xml version="1.0" encoding="UTF-8" standalone="no"?>
<!-- Created with Inkscape (http://www.inkscape.org/) -->

<svg
   width="70.093765mm"
   height="64.869789mm"
   viewBox="0 0 70.093765 64.869789"
   version="1.1"
   id="svg5"
   xml:space="preserve"
   xmlns="http://www.w3.org/2000/svg"
   xmlns:svg="http://www.w3.org/2000/svg"><defs
     id="defs2" /><g
     id="layer1"
     transform="translate(-137.91334,-294.83302)"><g
       id="g3876"><circle
         style="fill:#e8491d;fill-opacity:1;stroke:none;stroke-width:0.381448;stop-color:#000000"
         id="circle3848"
         cx="156.97517"
         cy="352.04385"
         r="7.6589518" /><circle
         style="fill:#000000;fill-opacity:1;stroke:none;stroke-width:0.499999;stop-color:#000000"
         id="path3852"
         cx="156.97517"
         cy="352.04385"
         r="3.4963927" /><g
         id="g2666"
         transform="translate(106.15269)"><path
           style="fill:#e8491d;fill-opacity:1;stroke-width:0.264583"
           d="m 36.212727,336.5049 v -4.36563 h 0.879921 c 0.976291,0 1.813804,0.71175 2.277455,1.93546 0.414645,1.09437 0.349188,4.04671 -0.109381,4.93349 -0.515372,0.99662 -1.641331,1.8623 -2.422218,1.8623 h -0.625777 z m 33.866668,-14.36688 c 0,-2.89866 0.09735,-4.27776 0.3175,-4.49791 0.223162,-0.22317 1.716852,-0.3175 5.027083,-0.3175 h 4.709583 v 4.49791 4.49792 h -5.027083 -5.027083 z m 12.408958,3.91584 c -0.01455,-0.14552 -0.02646,-0.56224 -0.02646,-0.92605 0,-0.3638 0.01191,-2.2688 0.02646,-4.23333 l 0.02646,-3.57187 h 4.611309 c 3.839321,0 4.680916,0.0696 5.027084,0.41577 0.342045,0.34205 0.415774,1.13966 0.415774,4.49792 v 4.08214 h -5.027084 c -3.15736,0 -5.036923,-0.0984 -5.053541,-0.26458 z M 54.890231,305.59919 c -0.370737,-0.27109 -0.45388,-0.54598 -0.322937,-1.06771 0.176212,-0.70209 0.178382,-0.70262 2.833113,-0.70262 h 2.656763 l -0.08212,0.99218 -0.08212,0.99219 -2.251712,0.0755 c -1.597679,0.0536 -2.396734,-0.0305 -2.750992,-0.28956 z m 7.251663,-0.70242 v -1.06791 h 2.340242 c 2.026407,0 2.406343,0.073 2.833148,0.54465 0.37737,0.41699 0.426913,0.64956 0.211367,0.99219 -0.226644,0.36027 -0.779052,0.4623 -2.833147,0.52326 l -2.55161,0.0757 z"
           id="path2670" /><path
           style="fill:#090807;stroke-width:0.264583"
           d="m 96.80231,352.45984 c 0,-1.14895 0.01939,-1.17604 0.763365,-1.06685 0.419852,0.0616 1.015164,-0.0227 1.322917,-0.18743 0.472337,-0.25278 0.559551,-0.54207 0.559551,-1.85601 0,-2.38116 -0.01209,-2.39352 -2.343412,-2.39397 l -2.022213,-2.6e-4 -1.25677,-1.28069 -1.256771,-1.28068 v -7.97935 -7.97934 H 81.324185 70.079394 v 7.80521 7.80521 h 5.577384 5.577388 l -1.145617,1.18625 -1.145614,1.18626 -10.054166,-0.0206 -10.054167,-0.0206 -1.02657,-1.1657 -1.026573,-1.1657 h 3.341677 3.341674 v -3.30729 -3.3073 l -1.785937,-0.002 c -4.27732,-0.004 -6.151563,-1.61275 -6.151563,-5.2817 v -1.596 h 3.983964 3.983963 l -0.08136,-1.12448 -0.08136,-1.12448 -7.871354,-0.0762 -7.871355,-0.0762 -0.01304,7.35225 -0.01304,7.35225 -1.177574,0.58487 -1.177573,0.58487 5.29e-4,-7.86091 5.3e-4,-7.86092 2.63989,-4.89479 c 4.064934,-7.53706 5.002663,-8.20208 11.565533,-8.20208 h 3.793212 l 0.988304,0.90556 0.988301,0.90557 0.0731,13.64652 0.0731,13.64652 h 1.183674 1.183672 v -13.38678 c 0,-11.91744 0.0475,-13.46719 0.432737,-14.11935 0.954201,-1.6158 0.807849,-1.59804 13.171596,-1.59804 h 11.273999 c 1.065263,0.13173 1.960071,0.58061 1.976604,1.81113 l 0.0731,13.64652 0.0731,13.64652 h 1.192737 1.192736 l -0.07521,-13.69219 c -0.08267,-15.05102 -0.01601,-14.4264 -1.735638,-16.2648 -1.458296,-1.55903 -1.365528,-1.55276 -21.783127,-1.47086 l -18.625193,0.0747 -1.536581,0.75402 c -2.493063,1.22338 -3.979995,2.95186 -6.863725,7.97869 -1.418709,2.47305 -2.787928,4.74516 -3.042709,5.04913 -0.75152,0.89662 -1.954339,1.60857 -3.484929,2.06275 -1.957833,0.58095 -2.624936,1.07232 -3.212374,2.36614 -0.444177,0.9783 -0.501846,1.78853 -0.506996,7.12313 l -0.0058,6.01927 h 4.396753 4.396751 l -1.058333,1.05833 -1.058334,1.05833 h -3.980977 c -4.723268,0 -4.812526,0.0435 -4.812526,2.34724 0,0.83362 0.142875,1.65855 0.3175,1.83318 0.212527,0.21253 1.393472,0.3175 3.571875,0.3175 h 3.254374 v 1.05833 1.05834 l -3.505729,-0.001 c -3.004508,-8e-4 -3.626255,-0.0745 -4.348738,-0.51501 -1.087808,-0.66328 -1.376043,-1.23405 -1.570457,-3.10983 -0.219897,-2.12163 0.227384,-3.599 1.364245,-4.50611 l 0.916914,-0.7316 0.01162,-6.21771 c 0.01244,-6.65469 0.131115,-7.43088 1.388124,-9.07891 0.73517,-0.96386 2.361464,-1.88276 4.076479,-2.30333 0.61082,-0.14979 1.444257,-0.60614 1.852084,-1.01411 0.407826,-0.4079 1.932125,-2.80683 3.387333,-5.33089 2.899601,-5.02936 4.24007,-6.67295 6.559669,-8.043 1.341232,-0.7922 2.213724,-1.08394 4.899002,-1.63814 0.525145,-0.10838 0.599315,-0.26361 0.529166,-1.10745 -0.07973,-0.95902 -0.111291,-0.98562 -1.384011,-1.16631 -3.223464,-0.45763 -4.207301,-4.51315 -1.484974,-6.12127 0.651639,-0.38493 1.656413,-0.44444 7.504276,-0.44444 h 6.751897 l 0.80631,0.67846 c 2.342766,1.97131 0.908423,5.93612 -2.147499,5.93612 H 65.84606 v 1.19063 1.19062 l 13.692188,2.1e-4 13.692187,2.1e-4 1.5875,0.76186 c 1.791393,0.85971 2.52616,1.48573 3.395811,2.89326 1.197811,1.93865 1.234397,2.43112 1.234405,16.61579 l 8e-6,13.46305 0.914081,0.72934 c 2.0441,1.631 1.97295,6.14901 -0.12035,7.64245 -0.363799,0.25955 -1.286533,0.55124 -2.050517,0.64821 l -1.389063,0.1763 z m -33.388432,-18.27002 -0.08136,-1.12448 -2.844271,-0.0751 c -3.219432,-0.085 -3.497966,0.12356 -2.070873,1.55066 0.728038,0.72803 0.899623,0.77339 2.925628,0.77339 h 2.152234 z m -9.209484,-9.06198 v -1.19062 h -2.063943 -2.063946 l -0.578451,1.19062 -0.57845,1.19063 H 51.562 54.204394 Z m 9.256516,-2.57968 c -0.0053,-5.15218 0.04544,-5.07232 -3.286167,-5.16946 -4.566452,-0.13315 -6.550051,0.69332 -8.037798,3.34899 l -0.612243,1.09286 1.802868,0.008 c 1.057915,0.005 1.989889,0.1505 2.255485,0.35229 0.629735,0.47844 1.002589,1.58066 1.002589,2.96381 v 1.1734 h 3.439583 3.439583 l -0.0039,-3.77031 z m 16.67265,-0.72761 v -4.49791 h -4.709583 c -3.310231,0 -4.803921,0.0943 -5.027083,0.3175 -0.220152,0.22015 -0.3175,1.59925 -0.3175,4.49791 v 4.18042 h 5.027083 5.027083 z m 12.435417,0.41578 c 0,-3.35826 -0.07373,-4.15587 -0.415774,-4.49792 -0.346168,-0.34617 -1.187763,-0.41577 -5.027084,-0.41577 H 82.51481 l -0.02646,3.57187 c -0.01455,1.96453 -0.02646,3.86953 -0.02646,4.23333 0,0.36381 0.01191,0.78053 0.02646,0.92605 0.01662,0.16617 1.896181,0.26458 5.053541,0.26458 h 5.027084 z m -29.155099,-12.78505 0.08136,-1.12448 h -2.264171 -2.264172 v 1.20133 1.20132 l 2.182812,-0.0768 2.182813,-0.0768 z m -3.438824,-4.63021 0.08212,-0.99218 h -2.656763 c -2.654731,0 -2.656901,5.3e-4 -2.833113,0.70262 -0.284129,1.13206 0.427,1.44605 3.073929,1.35727 l 2.251712,-0.0755 z m 7.551597,0.54466 c 0.215546,-0.34263 0.166003,-0.5752 -0.211367,-0.99219 -0.426805,-0.47161 -0.806741,-0.54465 -2.833148,-0.54465 h -2.340242 v 1.06791 1.06791 l 2.55161,-0.0757 c 2.054095,-0.061 2.606503,-0.16299 2.833147,-0.52326 z m -6.972257,46.61732 v -1.05833 h 8.334375 8.334375 v 1.05833 1.05834 H 68.888769 60.554394 Z M 76.693977,339.6799 v -2.24896 H 74.445019 72.19606 v -1.05833 -1.05834 h 2.248959 2.248958 v -2.24896 -2.24895 h 1.190625 1.190625 v 2.24895 2.24896 h 2.248958 2.248959 v 1.05834 1.05833 h -2.248959 -2.248958 v 2.24896 2.24896 H 77.884602 76.693977 Z M 55.055251,299.52106 c -0.759012,-0.76856 -1.380024,-1.52171 -1.380024,-1.67367 0,-0.15196 0.301689,-0.55971 0.67042,-0.90612 l 0.67042,-0.62982 1.633077,1.63307 1.633077,1.63308 -0.629825,0.67042 c -0.346406,0.36873 -0.761968,0.67042 -0.923472,0.67042 -0.161507,0 -0.91466,-0.62882 -1.673673,-1.39738 z m 9.462175,0.72983 -0.627129,-0.66754 1.561897,-1.57837 1.561896,-1.57836 0.743461,0.71228 0.743458,0.71228 -1.517629,1.53363 c -0.834697,0.8435 -1.5899,1.53363 -1.678229,1.53363 -0.08833,0 -0.442806,-0.3004 -0.787725,-0.66755 z m -4.492199,-3.16891 v -2.24896 h 1.058333 1.058334 v 2.24896 2.24896 H 61.08356 60.025227 Z"
           id="path2668" /></g><circle
         style="fill:#ffffff;fill-opacity:1;stroke:none;stroke-width:0.499999;stop-color:#000000"
         id="path3854"
         cx="156.97517"
         cy="352.04385"
         r="1.0330336" /><circle
         style="fill:#e8491d;fill-opacity:1;stroke:none;stroke-width:0.381448;stop-color:#000000"
         id="circle3856"
         cx="192.80817"
         cy="352.04385"
         r="7.6589518" /><circle
         style="fill:#000000;fill-opacity:1;stroke:none;stroke-width:0.499999;stop-color:#000000"
         id="circle3858"
         cx="192.80817"
         cy="352.04385"
         r="3.4963927" /><circle
         style="fill:#ffffff;fill-opacity:1;stroke:none;stroke-width:0.499999;stop-color:#000000"
         id="circle3860"
         cx="192.80817"
         cy="352.04385"
         r="1.0330336" /></g></g></svg>
