<?xml version="1.0" encoding="UTF-8" standalone="no"?>
<!-- Created with Inkscape (http://www.inkscape.org/) -->

<svg
   width="65.087502mm"
   height="65.352089mm"
   viewBox="0 0 65.087502 65.352089"
   version="1.1"
   id="svg5"
   xml:space="preserve"
   xmlns="http://www.w3.org/2000/svg"
   xmlns:svg="http://www.w3.org/2000/svg"><defs
     id="defs2" /><g
     id="layer1"
     transform="translate(-129.48976,-491.86805)"><g
       id="g3887"><g
         id="g2678"
         transform="translate(89.357359)"><path
           style="fill:#e8491d;fill-opacity:1;stroke-width:0.264583"
           d="m 44.363868,549.48108 c -10e-4,-0.18191 -0.01389,-3.00964 -0.02859,-6.28386 l -0.02672,-5.95312 6.16508,-0.0525 6.165081,-0.0525 -2.952914,2.95291 -2.952913,2.95291 -0.832345,-0.61537 -0.832346,-0.61539 -0.690051,0.69006 -0.69005,0.69005 1.441147,1.45927 1.441149,1.45928 3.11538,-3.10727 3.115378,-3.10726 v 4.9568 4.9568 h -6.217708 c -4.796782,0 -6.218135,-0.0756 -6.219576,-0.33072 z m -0.01256,-17.85938 c -0.07652,-1.05225 0.03816,-12.08433 0.126542,-12.1727 0.170329,-0.17033 10.918992,-0.23205 11.394001,-0.0654 0.286179,0.10038 -0.420036,0.96009 -2.455784,2.98952 l -2.857481,2.84862 -0.63163,-0.67234 -0.631631,-0.67234 -0.749226,0.71781 -0.749226,0.7178 1.386838,1.40428 1.386838,1.40429 3.18145,-3.1744 3.181448,-3.1744 -0.07721,5.02386 -0.07721,5.02386 H 50.57238 c -3.413655,0 -6.213138,-0.0893 -6.221075,-0.19844 z m 0.190819,-18.76337 c -0.09701,-0.097 -0.176389,-2.47826 -0.176389,-5.29167 v -5.11527 h 13.62604 13.626042 v 5.1263 5.1263 l -0.826823,0.16537 c -1.114251,0.22285 -26.025461,0.21238 -26.248873,-0.011 z m 6.04132,-5.11528 c 0,-0.8791 -0.05029,-0.9302 -0.992188,-1.00816 l -0.992187,-0.0821 v 1.09027 1.09028 l 0.992187,-0.0821 c 0.941899,-0.0779 0.992188,-0.12905 0.992188,-1.00816 z m 4.233333,0 c 0,-0.8923 -0.03889,-0.9289 -1.067255,-1.0046 -1.023414,-0.0753 -1.069828,-0.0448 -1.129933,0.74404 -0.0874,1.14703 0.11906,1.35982 1.229581,1.26726 0.914085,-0.0762 0.967607,-0.13188 0.967607,-1.0067 z m 4.101042,0 v -1.05833 h -1.058333 -1.058334 v 1.05833 1.05834 h 1.058334 1.058333 z m 4.233334,0 v -1.05833 h -1.058334 -1.058333 v 1.05833 1.05834 h 1.058333 1.058334 z m 4.233333,0 v -1.05833 h -1.058333 -1.058334 v 1.05833 1.05834 h 1.058334 1.058333 z"
           id="path2682" /><path
           style="fill:#080707;stroke-width:0.264583"
           d="m 40.132402,527.7191 v -29.50105 h 6.879167 6.879167 v -3.175 -3.175 h 19.84375 19.843751 v 17.70281 17.70281 l 1.898904,1.2149 1.898904,1.2149 h 3.921925 3.92193 v 1.05833 1.05834 h -3.95152 c -2.173342,0 -4.27928,-0.12461 -4.679867,-0.27692 -0.400587,-0.1523 -2.581227,-1.5134 -4.84587,-3.02467 -2.870529,-1.91559 -4.396227,-2.77325 -5.037768,-2.83194 -0.917469,-0.0839 -0.921509,-0.0794 -1.342594,1.49336 l -0.422354,1.57754 0.97118,0.4805 c 0.984628,0.48716 1.524979,1.22477 1.600851,2.18525 0.103116,1.30542 -0.07766,1.83123 -0.918721,2.67229 l -0.899583,0.89959 H 79.48256 c -3.416102,0 -6.590319,0.0758 -7.053819,0.16854 -1.001607,0.20032 -2.282542,1.40006 -2.454338,2.29876 l -0.122566,0.64115 5.843929,0.13751 c 5.769227,0.13576 5.886207,0.14995 9.151221,1.11019 3.058602,0.89953 3.496297,0.96285 5.820833,0.84206 1.542561,-0.0802 3.740045,-0.44412 5.688542,-0.94219 1.996991,-0.51046 4.230298,-0.87632 6.019268,-0.98608 l 2.84427,-0.1745 v 1.05769 1.05768 l -2.84427,0.17311 c -1.65839,0.10093 -4.057726,0.47631 -5.754684,0.90032 l -2.910417,0.72722 -0.07254,4.43177 -0.07254,4.43177 h -6.740478 -6.740477 v 3.175 3.175 H 60.108444 40.132402 Z m 37.835418,23.15104 c 0,-4.05695 -0.02204,-4.23334 -0.529167,-4.23334 -0.291041,0 -0.530989,0.14883 -0.533217,0.33073 -0.0096,0.77929 -0.397862,0.98467 -1.359625,0.71912 -0.81221,-0.22426 -0.926071,-0.3509 -0.819013,-0.91094 0.09036,-0.47267 -0.09196,-0.86676 -0.667022,-1.44182 -0.780317,-0.78032 -1.263309,-2.2594 -1.025499,-3.14042 0.06702,-0.2483 0.194726,-0.77888 0.283784,-1.17906 l 0.161923,-0.72761 h -2.204109 c -2.342584,0 -3.099229,-0.34207 -3.491672,-1.57854 -0.124426,-0.39203 -0.399402,-0.5386 -1.01286,-0.53987 -1.446694,-0.003 -2.979399,-1.31624 -3.093564,-2.65063 -0.124505,-1.45521 0.05278,-1.92192 1.193165,-3.14108 0.654844,-0.70008 1.190625,-1.34983 1.190625,-1.44388 0,-0.0941 -0.900154,-0.171 -2.000347,-0.171 h -2.000346 l 0.08212,-0.99218 0.08212,-0.99219 3.03966,-0.0754 c 3.010901,-0.0747 3.047829,-0.0833 3.902605,-0.9118 0.822936,-0.79762 1.093237,-1.29812 0.664506,-1.23043 -0.10914,0.0172 -1.895078,0.0172 -3.96875,0 l -3.770313,-0.0313 v -0.92604 -0.92604 l 5.09323,-0.006 c 4.501549,-0.005 5.227217,-0.0666 6.246601,-0.52917 0.636847,-0.28897 1.723197,-0.52335 2.425758,-0.52335 2.304794,0 2.109412,1.09287 2.109412,-11.79908 v -11.47789 l -9.988021,-0.0693 -9.988021,-0.0693 -0.08212,-0.99219 -0.08212,-0.99219 h 11.124856 11.124857 l 0.06976,8.61878 0.06976,8.61877 1.410833,-5.26281 c 0.775957,-2.89455 1.643594,-5.63045 1.928085,-6.07977 1.007814,-1.59173 3.794233,-2.13755 5.519449,-1.08118 0.923555,0.56551 1.637266,1.96123 1.63154,3.19062 -0.0029,0.61804 -0.965298,4.65497 -2.138714,8.97095 -1.173417,4.31598 -2.133484,7.97715 -2.133484,8.13594 0,0.15879 0.334939,0.2887 0.74431,0.2887 0.409369,0 1.53394,0.47625 2.499048,1.05834 0.965107,0.58208 1.815449,1.05833 1.889649,1.05833 0.0742,0 0.140893,-7.14375 0.148209,-15.875 l 0.01331,-15.875 H 73.735918 55.742819 v 3.175 3.175 H 48.995944 42.249069 V 527.719 555.10337 H 60.108444 77.96782 Z m -17.991667,0 v -1.05834 h 5.820833 5.820834 v 1.05834 1.05833 h -5.820834 -5.820833 z m 13.758333,0 v -1.05834 h 1.058334 1.058333 v 1.05834 1.05833 H 74.79282 73.734486 Z m -24.604385,-6.21582 -1.442003,-1.46014 0.69005,-0.69005 0.690051,-0.69006 0.831654,0.61487 0.831653,0.61487 4.830544,-4.82525 4.830544,-4.82525 0.711864,0.74303 0.711864,0.74303 -5.622108,5.61754 -5.622109,5.61755 z m 0.05439,-17.9366 -1.387617,-1.40507 0.749226,-0.7178 0.749226,-0.71781 0.632498,0.67327 0.632499,0.67326 4.916104,-4.911 4.916104,-4.91099 0.711896,0.74306 0.711899,0.74306 -5.622108,5.61755 -5.622109,5.61754 z m 12.908332,-5.34862 v -0.92605 h 6.879167 6.879167 v 0.92605 0.92604 H 68.97199 62.092823 Z m -13.49375,-13.62605 v -1.09027 l 0.992187,0.0821 c 0.941899,0.078 0.992188,0.12906 0.992188,1.00816 0,0.87911 -0.05029,0.93021 -0.992188,1.00816 l -0.992187,0.0821 z m 4.120167,0.8247 c -0.08928,-0.14446 -0.134121,-0.63283 -0.09965,-1.08526 0.06011,-0.78881 0.106519,-0.81938 1.129933,-0.74404 1.028367,0.0757 1.067255,0.1123 1.067255,1.0046 0,0.87482 -0.05352,0.93051 -0.967607,1.0067 -0.532184,0.0444 -1.040655,-0.0375 -1.129934,-0.182 z m 4.081916,-0.8247 v -1.05833 h 1.058334 1.058333 v 1.05833 1.05834 H 57.85949 56.801156 Z m 4.233334,0 v -1.05833 h 1.058333 1.058334 v 1.05833 1.05834 H 62.092823 61.03449 Z m 4.233333,0 v -1.05833 h 1.058334 1.058333 v 1.05833 1.05834 h -1.058333 -1.058334 z m 26.458335,37.83542 v -3.175 l -1.785938,-0.004 c -1.65364,-0.004 -3.967713,-0.47436 -6.980915,-1.41964 l -1.22623,-0.38469 -0.598927,2.10344 c -0.329411,1.1569 -0.700344,2.16612 -0.824293,2.24273 -0.12395,0.0766 -0.225364,0.96571 -0.225364,1.97576 v 1.83647 h 5.820833 5.820834 z m -13.508329,-1.57292 c 0.434882,-0.43488 1.337495,-2.79834 1.337495,-3.50218 0,-0.11911 -0.878835,-0.21657 -1.952966,-0.21657 H 75.64939 l -0.295995,1.1755 c -0.405577,1.6107 -0.377214,1.91828 0.233175,2.52867 0.673965,0.67397 1.964716,0.68112 2.631255,0.0146 z m -8.314833,-10.61894 c 3.028939,-3.05874 4.398163,-4.09609 5.738429,-4.34753 0.886354,-0.16628 0.974666,-0.27518 1.372274,-1.69225 0.530625,-1.89113 0.551757,-1.75078 -0.273888,-1.81912 -1.790745,-0.1482 -2.504541,0.34594 -6.919178,4.79 -3.453286,3.47631 -4.266017,4.43096 -4.11639,4.8352 0.220245,0.59501 0.601816,0.89092 1.156044,0.89651 0.221012,0.002 1.590231,-1.19604 3.042709,-2.66281 z m 5.836663,-1.15824 c 0.308637,-1.22971 -0.0217,-1.32991 -1.095515,-0.33226 l -1.041945,0.96804 0.987147,0.007 c 0.830524,0.006 1.013034,-0.096 1.150313,-0.64294 z m 5.932332,0.53314 c 0,-0.0643 0.892969,-3.40891 1.984375,-7.4324 1.091406,-4.02349 1.984375,-7.39939 1.984375,-7.50201 0,-0.25704 -3.413459,-1.34663 -3.540594,-1.13018 -0.05629,0.0958 -1.014526,3.56754 -2.129409,7.71488 -1.114882,4.14735 -2.089181,7.74899 -2.165109,8.00365 -0.122939,0.41234 0.08109,0.46302 1.864156,0.46302 1.101215,0 2.002206,-0.0526 2.002206,-0.11696 z m 3.656422,-0.31749 c 0.336103,-0.60059 0.09522,-1.3435 -0.484801,-1.49518 -0.340304,-0.089 -0.528741,0.0533 -0.635868,0.48013 -0.08374,0.33362 -0.225023,0.79624 -0.313973,1.02805 -0.225078,0.58654 1.105871,0.57448 1.434642,-0.013 z m 1.274493,-18.12544 0.149204,-0.91944 -1.622481,-0.49124 c -1.780254,-0.53902 -2.032569,-0.45009 -2.28356,0.80487 -0.155168,0.77584 -0.120849,0.80623 1.516393,1.34312 0.921335,0.30212 1.768774,0.46669 1.883198,0.36571 0.114425,-0.10097 0.275186,-0.59734 0.357246,-1.10302 z m 1.514213,-5.52298 c 0.722842,-2.69562 0.686049,-3.43284 -0.200882,-4.02506 -0.570336,-0.38082 -1.928056,-0.20342 -2.395397,0.31299 -0.409589,0.45259 -1.886384,4.99765 -1.679149,5.16783 0.09625,0.079 3.190848,1.14554 3.40932,1.17497 0.08529,0.0115 0.475033,-1.17234 0.866108,-2.63073 z"
           id="path2680" /></g></g></g></svg>
