<?xml version="1.0" encoding="UTF-8" standalone="no"?>
<!-- Created with Inkscape (http://www.inkscape.org/) -->

<svg
   width="61.768433mm"
   height="61.996983mm"
   viewBox="0 0 61.768433 61.996982"
   version="1.1"
   id="svg5"
   xml:space="preserve"
   xmlns="http://www.w3.org/2000/svg"
   xmlns:svg="http://www.w3.org/2000/svg"><defs
     id="defs2" /><g
     id="layer1"
     transform="translate(-130.66799,-22.712826)"><g
       id="g2420"
       transform="translate(20.2516,1.6795671)"><circle
         style="fill:#e8491d;fill-opacity:1;stroke:none;stroke-width:0.499999;stop-color:#000000"
         id="path1252"
         cx="165.35025"
         cy="51.660866"
         r="6.8345857" /><path
         style="fill:#e8491d;fill-opacity:1;stroke:none;stroke-width:0.499999;stop-color:#000000"
         d="m 116.07459,22.69842 0.13866,3.559175 c 0,0 2.31422,0.369652 3.62689,1.078743 1.31267,0.709088 3.83763,2.53678 3.83763,2.53678 l 3.77968,-2.966807 -6.45683,-3.525715 z"
         id="path1196" /><path
         id="path1488"
         style="fill:#000000;stroke-width:0.264583"
         d="m 165.32002,47.551536 c -1.44322,0.02218 -2.89483,0.827085 -3.69642,2.383317 -0.94428,1.833252 0.0654,4.616978 1.97456,5.443596 3.62442,1.569273 7.18013,-2.373762 5.22139,-5.790344 -0.79532,-1.387244 -2.14378,-2.057402 -3.49953,-2.036569 z m 0.0811,2.140955 c 1.75659,0 2.58347,2.177319 1.28881,3.393591 -0.81232,0.763127 -1.89931,0.733602 -2.70681,-0.0739 -1.2903,-1.29029 -0.42356,-3.319694 1.418,-3.319694 z" /><path
         style="fill:#000000;stroke-width:0.264583"
         d="m 164.33691,65.898472 -0.0773,-2.050521 h -0.99236 -0.99236 l 1.7e-4,-2.336128 1.8e-4,-2.336125 0.85989,0.184428 c 1.22112,0.261903 1.25677,0.303339 1.25677,1.460733 0,1.015288 0.0244,1.042717 0.92604,1.042717 0.9052,0 0.92605,-0.02402 0.92605,-1.066636 0,-1.085929 0.0488,-1.136173 1.38906,-1.429848 l 0.7276,-0.15943 1.8e-4,2.320145 1.7e-4,2.320144 h -0.99236 -0.99236 l -0.0773,2.050521 -0.0773,2.050521 h -0.90378 -0.90378 z"
         id="path1486" /><path
         style="fill:#000000;stroke-width:0.264583"
         d="m 134.80391,45.021527 c 0.26612,-0.240834 0.48385,-0.657553 0.48385,-0.926042 0,-0.420251 -0.22084,-0.488159 -1.5875,-0.488159 -1.75562,0 -2.03368,0.34757 -1.05833,1.322917 0.64341,0.643414 1.51139,0.680061 2.16198,0.09128 z"
         id="path1476" /><path
         style="fill:#000000;stroke-width:0.264583"
         d="m 139.29951,39.141583 c -0.19463,-0.12337 -0.3137,-0.5085 -0.26458,-0.855845 0.11149,-0.78858 1.37708,-1.052589 1.64899,-0.343993 0.40614,1.058397 -0.44448,1.795616 -1.38441,1.199838 z"
         id="path1474" /><path
         style="fill:#000000;stroke-width:0.264583"
         d="m 126.81204,38.827914 c -0.21693,-0.405339 -0.21098,-0.644006 0.0231,-0.926041 0.47546,-0.572895 1.50759,-0.47516 1.70979,0.161901 0.36216,1.141076 -1.16964,1.816552 -1.73287,0.76414 z"
         id="path1472" /><path
         style="fill:#e8491d;fill-opacity:1;stroke:none;stroke-width:0.499999;stop-color:#000000"
         d="m 151.20513,22.220859 -0.13866,3.559175 c 0,0 -2.31422,0.369652 -3.62689,1.078743 -1.31267,0.709088 -3.83763,2.53678 -3.83763,2.53678 l -3.77968,-2.966807 6.45683,-3.525715 z"
         id="path1198" /><rect
         style="fill:#e8491d;fill-opacity:1;stroke:none;stroke-width:0.499999;stop-color:#000000"
         id="rect524"
         width="7.615643"
         height="7.1650667"
         x="130.03447"
         y="27.183994" /><path
         id="path1460"
         style="fill:#000000;stroke-width:0.264583"
         d="m 114.29988,21.033258 0.17363,2.446879 c 0.17406,2.452121 0.66812,4.864333 1.36684,6.675562 0.40397,1.047106 0.23103,1.280542 -0.94774,1.280542 -0.40364,0 -0.50747,0.18955 -0.50747,0.926042 v 0.926041 h -1.98437 -1.98438 l 0.005,4.828646 c 0.005,5.266131 0.27777,7.154041 1.46865,10.158036 2.75834,6.957994 9.80465,12.466629 16.95762,13.256556 l 1.8097,0.199471 0.1323,1.058333 c 0.12126,0.970136 0.19843,1.058333 0.92604,1.058333 0.79309,0 0.7594,0.0032 0.8661,1.719792 l 0.14727,2.372982 2.0066,0.0083 0.077,-2.050521 0.0775,-2.050521 0.9772,-0.08113 c 0.91803,-0.07631 0.98204,-0.140281 1.05834,-1.058333 0.0725,-0.87184 0.16664,-0.984808 0.87488,-1.049548 1.87993,-0.171836 4.86802,-0.975445 6.65334,-1.789038 4.83251,-2.202248 8.59844,-5.966886 10.80967,-10.806059 1.44148,-3.154564 1.73873,-4.796821 1.90738,-10.549744 l 0.15296,-5.225521 h -2.1549 -2.15491 v -0.926041 c 0,-0.860235 -0.0587,-0.926042 -0.82476,-0.926042 -0.93529,0 -0.9366,0.141323 0.0315,-3.042708 0.32919,-1.08263 0.62683,-2.97878 0.71623,-4.564063 l 0.15296,-2.711979 h -0.67024 c -0.83037,0 -4.76865,0.719792 -6.0203,1.100191 -1.62318,0.493321 -5.11614,2.128617 -6.43579,3.013253 -1.27381,0.853905 -1.27879,0.855079 -2.64583,0.483691 -1.80232,-0.489638 -5.52914,-0.473365 -7.1701,0.03152 l -1.30277,0.401009 -1.60765,-1.046964 c -3.17047,-2.06415 -7.25684,-3.478691 -11.24118,-3.891236 z m 2.20761,2.283582 1.8061,0.341581 c 2.20872,0.417649 4.92004,1.417607 6.87348,2.535246 l 1.46399,0.837675 -0.64285,0.396875 c -0.3534,0.218284 -1.44178,1.209353 -2.41898,2.202449 l -1.77715,1.805575 h -1.58957 c -1.46684,0 -1.61929,-0.05631 -1.96629,-0.727604 -0.58212,-1.126241 -1.43269,-4.271557 -1.59886,-5.911784 z m 33.80983,0.181901 c 0.63407,0 0.63995,0.02276 0.45578,1.742529 -0.15736,1.469353 -0.79917,3.775641 -1.59525,5.73195 -0.15146,0.372211 -0.51609,0.463021 -1.85932,0.463021 h -1.67121 l -1.17616,-1.344104 c -0.64679,-0.739401 -1.71708,-1.729499 -2.37866,-2.199866 -1.17917,-0.838354 -1.19163,-0.862138 -0.63046,-1.214396 2.3735,-1.489903 7.07859,-3.179134 8.85528,-3.179134 z m -18.18287,3.96875 c 0.47433,0 0.50746,0.225294 0.50746,3.439583 v 3.439584 h 1.05833 1.05834 v -3.439584 -3.439583 h 0.63975 c 1.44775,0 1.47691,0.07098 1.47691,3.600297 v 3.27887 h 0.92604 0.92605 l 0.0305,-2.447396 c 0.0168,-1.346063 0.009,-2.655755 -0.0165,-2.910417 -0.0545,-0.535249 0.31397,-0.588833 1.11104,-0.162264 1.78086,0.953089 3.85909,3.278447 4.93303,5.520077 0.89827,1.874867 0.95619,2.158984 1.04749,5.141805 0.0955,3.120888 0.10749,3.173296 1.05936,4.607987 0.86381,1.301943 0.96318,1.630689 0.96118,3.193087 -0.002,2.270345 -0.62363,3.281212 -2.97449,4.838981 -2.67855,1.774913 -2.53765,1.730965 -2.27738,0.7059 0.12471,-0.491143 0.20607,-1.71122 0.18087,-2.711462 -0.14195,-5.621598 -5.90533,-9.824502 -11.31559,-8.251693 -2.69643,0.783868 -4.65373,2.354422 -5.91437,4.74493 -0.64283,1.218925 -0.71553,1.632157 -0.71572,4.068486 -1.1e-4,1.491578 -0.0661,2.711979 -0.14676,2.711979 -0.29309,0 -2.78299,-1.658485 -3.51503,-2.341459 -2.04606,-1.908938 -2.21742,-4.686884 -0.44028,-7.140133 0.74893,-1.033818 0.79478,-1.239749 0.79478,-3.584794 0,-5.015979 2.07576,-8.940264 6.01927,-11.379667 l 1.12448,-0.696082 v 3.046326 3.045809 h 1.05833 1.05834 v -3.27887 c 0,-3.476037 0.0464,-3.600297 1.34462,-3.600297 z m -15.63212,5.820833 h 2.11666 c 1.16417,0 2.11667,0.08102 2.11667,0.179834 0,0.09881 -0.14305,0.57506 -0.31781,1.058334 -0.31744,0.877886 -0.31939,0.878499 -2.11667,0.878499 h -1.79885 v -1.058333 z m 32.41145,0 h 2.24896 v 1.058334 1.058333 h -1.86552 -1.86552 l -0.38343,-0.917257 c -0.21086,-0.504648 -0.38344,-0.980903 -0.38344,-1.058333 0,-0.07743 1.01205,-0.141077 2.24895,-0.141077 z m -36.72489,2.116667 h 1.09865 c 1.07865,0 1.09812,0.01645 1.09812,0.926042 v 0.926041 h 2.6386 2.6386 l -0.1602,2.579688 c -0.0951,1.529208 -0.3017,2.743644 -0.50746,2.98173 -0.81769,0.946128 -1.42349,2.807791 -1.41749,4.360457 0.0107,2.926017 1.0699,4.699097 3.95118,6.614584 2.37798,1.580879 4.74161,2.662971 7.14944,3.272668 l 1.9792,0.500745 0.0811,1.089856 c 0.0914,1.224399 0.16193,1.200276 -2.29805,0.791683 -2.00222,-0.332563 -4.84115,-1.361856 -6.60322,-2.394686 -2.4156,-1.415917 -5.8188,-5.005786 -7.11119,-7.500834 -1.68731,-3.25745 -2.19393,-5.411666 -2.37867,-10.113078 z m 41.91528,0 h 1.08933 l -0.1266,4.299479 c -0.13675,4.644808 -0.52443,6.430589 -2.05414,9.458854 -2.32796,4.608492 -7.20692,8.605357 -12.03648,9.86038 -0.87309,0.226894 -2.16071,0.490938 -2.8608,0.586528 l -1.27279,0.173633 0.0822,-1.107426 0.0827,-1.107943 2.24896,-0.63717 c 3.4252,-0.970557 7.08057,-2.978842 8.91625,-4.898409 2.19521,-2.295473 2.44184,-5.889712 0.60307,-8.789128 -0.66526,-1.049006 -0.76142,-1.465292 -0.81132,-3.521749 l -0.0563,-2.332674 2.55333,-0.07545 2.55334,-0.07596 v -0.916223 c 0,-0.897165 0.0229,-0.91674 1.08934,-0.91674 z m -16.43156,9.260417 c 0.50535,0 2.38471,2.530929 2.79363,3.762044 0.55143,1.660208 0.39566,3.907873 -0.37569,5.419824 -0.51816,1.015681 -0.63702,1.088386 -2.21227,1.361157 -3.46115,0.599344 -5.6678,0.559997 -8.94054,-0.159163 -1.28698,-0.282805 -2.24282,-2.16916 -2.24482,-4.430737 -0.002,-1.87955 1.00157,-4.204875 2.27841,-5.279265 0.96757,-0.814148 1.20185,-0.836498 1.42421,-0.135909 0.21305,0.671277 1.16643,1.693983 1.79472,1.925464 0.40988,0.151027 0.46377,0.453393 0.39687,2.229321 -0.0762,2.023832 -0.0884,2.055761 -0.80667,2.138371 -0.47547,0.05469 -0.78456,-0.06036 -0.88831,-0.330729 -0.18483,-0.481655 -2.21899,-0.596326 -2.21899,-0.125057 0,0.563041 0.87443,1.760667 1.59784,2.18798 0.90635,0.535421 1.748,0.547461 2.72334,0.03876 0.66574,-0.347214 0.8389,-0.344672 1.5534,0.0248 1.07584,0.556337 2.45879,0.278506 3.42563,-0.68833 0.41466,-0.414662 0.75396,-1.001046 0.75396,-1.303279 0,-0.447836 -0.1652,-0.549838 -0.89349,-0.549838 -0.4915,0 -1.04202,0.178598 -1.22318,0.396875 -0.43335,0.522148 -1.48788,0.509106 -1.69137,-0.02119 -0.0883,-0.230182 -0.15996,-1.15292 -0.15916,-2.050521 0.002,-1.536208 0.0484,-1.658495 0.79633,-2.08411 0.43703,-0.248688 1.04318,-0.873766 1.34721,-1.389063 0.30399,-0.515293 0.65016,-0.93741 0.76894,-0.93741 z m -5.0307,12.964583 h 1.05833 1.05834 v 2.116667 2.116666 h -1.05834 -1.05833 v -2.116666 z" /><path
         style="fill:#000000;stroke-width:0.264583"
         d="m 164.39193,70.991703 c 0,-0.881943 0.0441,-0.926041 0.92604,-0.926041 0.88194,0 0.92604,0.0441 0.92604,0.926041 0,0.881944 -0.0441,0.926042 -0.92604,0.926042 -0.88194,0 -0.92604,-0.0441 -0.92604,-0.926042 z"
         id="path1458" /><path
         style="fill:#000000;stroke-width:0.264583"
         d="m 132.64193,71.019493 c 0,-0.854749 0.0513,-0.903139 1.05833,-0.99918 l 1.05834,-0.100928 v 0.999178 c 0,0.989322 -0.0104,0.99918 -1.05834,0.99918 -1.0269,0 -1.05833,-0.02668 -1.05833,-0.89825 z"
         id="path1456" /><path
         style="fill:#000000;stroke-width:0.264583"
         d="m 136.07523,82.434931 c -2.24315,-1.134812 -3.4333,-3.546915 -3.4333,-6.958336 V 74.03441 h 1.03118 1.03119 l 0.0933,2.229755 c 0.10024,2.395863 0.43203,3.129544 1.91568,4.236188 0.99649,0.743273 3.30793,0.735777 4.31215,-0.014 1.76963,-1.321218 1.79039,-1.408387 1.93525,-8.124079 0.1216,-5.637466 0.17844,-6.218613 0.70338,-7.191422 2.03457,-3.77049 6.6181,-4.46713 9.6227,-1.462532 1.67759,1.677596 1.84476,2.452687 1.84476,8.553609 0,5.365009 0.12956,6.192866 1.1421,7.297472 0.74287,0.810422 2.47204,1.607122 3.4881,1.607122 1.32594,0 2.9433,-0.907836 3.7269,-2.091936 0.57259,-0.865243 0.74504,-1.489686 0.84604,-3.063478 l 0.12686,-1.976702 h 0.89125 0.89125 v 1.80495 c 0,2.358374 -0.58798,4.012436 -1.88868,5.313138 -1.42594,1.42594 -2.93329,1.969299 -5.08328,1.832398 -3.12409,-0.198927 -5.38227,-2.274972 -5.99439,-5.510903 -0.1514,-0.800365 -0.26351,-3.50388 -0.24912,-6.007812 0.0292,-5.08169 -0.0722,-5.497787 -1.6479,-6.764824 -1.59623,-1.283512 -4.15416,-1.010513 -5.45245,0.581922 -0.81342,0.99772 -0.94896,1.949834 -1.11394,7.825089 -0.1878,6.688042 -0.28206,7.102277 -1.9329,8.494329 -1.23036,1.037489 -2.34775,1.427546 -4.08945,1.427546 -1.07192,0 -1.89757,-0.180927 -2.71667,-0.595312 z"
         id="path374" /><rect
         style="fill:#000000;fill-opacity:1;stroke:none;stroke-width:0.499999;stop-color:#000000"
         id="rect1398"
         width="2.3246317"
         height="2.1029441"
         x="132.61336"
         y="69.918526" /><rect
         style="fill:#000000;fill-opacity:1;stroke:none;stroke-width:0.483326;stop-color:#000000"
         id="rect1452"
         width="2.2471135"
         height="2.0328186"
         x="164.17586"
         y="69.95359" /></g></g></svg>
