<svg width="27" height="28" viewBox="0 0 27 28" fill="none" xmlns="http://www.w3.org/2000/svg">
<path d="M13.6288 0.729141C10.1104 0.729141 9.66801 0.745733 8.28562 0.808783C6.90323 0.875152 5.96164 1.09749 5.13674 1.42601C4.27148 1.75921 3.48774 2.28188 2.84032 2.95746C2.18085 3.62064 1.6704 4.42294 1.34448 5.30857C1.0236 6.15144 0.804813 7.11711 0.741608 8.52744C0.680025 9.94606 0.663818 10.3974 0.663818 14.0045C0.663818 17.6083 0.680025 18.0596 0.741608 19.4749C0.806433 20.8886 1.0236 21.8526 1.34448 22.6971C1.67671 23.5698 2.11914 24.3099 2.84032 25.0482C3.55988 25.7866 4.28267 26.2412 5.13512 26.5797C5.96164 26.9082 6.90161 27.1322 8.28238 27.1969C9.66639 27.2599 10.1072 27.2765 13.6288 27.2765C17.1504 27.2765 17.5896 27.2599 18.9736 27.1969C20.3528 27.1305 21.2976 26.9082 22.1225 26.5797C22.9872 26.2463 23.7704 25.7236 24.4173 25.0482C25.1385 24.3099 25.5809 23.5698 25.9132 22.6971C26.2324 21.8526 26.4512 20.8886 26.516 19.4749C26.5776 18.0596 26.5938 17.6083 26.5938 14.0028C26.5938 10.3974 26.5776 9.94606 26.516 8.5291C26.4512 7.11711 26.2324 6.15144 25.9132 5.30857C25.5873 4.42292 25.0768 3.62061 24.4173 2.95746C23.7701 2.28163 22.9863 1.75892 22.1209 1.42601C21.2944 1.09749 20.3512 0.873493 18.972 0.808783C17.588 0.745733 17.1488 0.729141 13.6256 0.729141H13.6304H13.6288ZM12.4668 3.12172H13.6304C17.0921 3.12172 17.5021 3.13334 18.8683 3.19805C20.1324 3.25612 20.8195 3.47348 21.2766 3.65433C21.881 3.89492 22.3138 4.18362 22.7675 4.6482C23.2213 5.11278 23.5017 5.55413 23.7367 6.17467C23.9149 6.64091 24.1256 7.34442 24.1823 8.6386C24.2455 10.0373 24.2585 10.4571 24.2585 13.9995C24.2585 17.5419 24.2455 17.9634 24.1823 19.3621C24.1256 20.6563 23.9133 21.3581 23.7367 21.826C23.5288 22.4024 23.197 22.9235 22.7659 23.3508C22.3121 23.8154 21.881 24.1025 21.2749 24.343C20.8212 24.5256 20.134 24.7413 18.8683 24.801C17.5021 24.864 17.0921 24.879 13.6304 24.879C10.1688 24.879 9.75715 24.864 8.39096 24.801C7.12687 24.7413 6.44135 24.5256 5.98433 24.343C5.42116 24.1305 4.91168 23.7915 4.49336 23.3508C4.06187 22.9228 3.72959 22.4012 3.52098 21.8244C3.34433 21.3581 3.13203 20.6546 3.07531 19.3604C3.01373 17.9617 3.00076 17.5419 3.00076 13.9962C3.00076 10.4521 3.01373 10.034 3.07531 8.63528C3.13365 7.3411 3.34433 6.63759 3.5226 6.1697C3.75759 5.55081 4.03958 5.1078 4.49336 4.64322C4.94713 4.17864 5.37822 3.8916 5.98433 3.65101C6.44135 3.4685 7.12687 3.2528 8.39096 3.19307C9.58698 3.13666 10.0505 3.12007 12.4668 3.11841V3.12172ZM20.5505 5.32516C20.3462 5.32516 20.1439 5.36636 19.9551 5.44641C19.7664 5.52645 19.5949 5.64378 19.4504 5.79169C19.3059 5.9396 19.1913 6.11519 19.1131 6.30845C19.035 6.5017 18.9947 6.70883 18.9947 6.918C18.9947 7.12718 19.035 7.3343 19.1131 7.52755C19.1913 7.72081 19.3059 7.8964 19.4504 8.04431C19.5949 8.19222 19.7664 8.30955 19.9551 8.3896C20.1439 8.46964 20.3462 8.51084 20.5505 8.51084C20.9631 8.51084 21.3589 8.34303 21.6506 8.04431C21.9424 7.74559 22.1063 7.34045 22.1063 6.918C22.1063 6.49555 21.9424 6.09041 21.6506 5.79169C21.3589 5.49297 20.9631 5.32516 20.5505 5.32516ZM13.6304 7.18679C12.7473 7.17269 11.8703 7.33859 11.0504 7.67484C10.2305 8.01108 9.4841 8.51096 8.8547 9.14537C8.22531 9.77977 7.72547 10.536 7.38429 11.3701C7.04311 12.2042 6.86741 13.0994 6.86741 14.0037C6.86741 14.9079 7.04311 15.8032 7.38429 16.6372C7.72547 17.4713 8.22531 18.2276 8.8547 18.862C9.4841 19.4964 10.2305 19.9962 11.0504 20.3325C11.8703 20.6687 12.7473 20.8346 13.6304 20.8205C15.3784 20.7926 17.0454 20.0621 18.2719 18.7868C19.4983 17.5114 20.1857 15.7934 20.1857 14.0037C20.1857 12.2139 19.4983 10.4959 18.2719 9.22057C17.0454 7.9452 15.3784 7.21471 13.6304 7.18679ZM13.6304 9.57772C14.7768 9.57772 15.8761 10.0439 16.6867 10.8738C17.4973 11.7037 17.9526 12.8292 17.9526 14.0028C17.9526 15.1764 17.4973 16.302 16.6867 17.1319C15.8761 17.9617 14.7768 18.428 13.6304 18.428C12.4841 18.428 11.3847 17.9617 10.5742 17.1319C9.76361 16.302 9.30823 15.1764 9.30823 14.0028C9.30823 12.8292 9.76361 11.7037 10.5742 10.8738C11.3847 10.0439 12.4841 9.57772 13.6304 9.57772Z" fill="white"/>
</svg>
