<?xml version="1.0" encoding="UTF-8" standalone="no"?>
<!-- Created with Inkscape (http://www.inkscape.org/) -->

<svg
   width="62.921471mm"
   height="62.991959mm"
   viewBox="0 0 62.921471 62.991959"
   version="1.1"
   id="svg5"
   xml:space="preserve"
   xmlns="http://www.w3.org/2000/svg"
   xmlns:svg="http://www.w3.org/2000/svg"><defs
     id="defs2" /><g
     id="layer1"
     transform="translate(-130.04789,-396.72939)"><g
       id="g3882"><circle
         style="fill:#e8491d;fill-opacity:1;stroke:none;stroke-width:0.499999;stop-color:#000000"
         id="path3846"
         cx="140.0872"
         cy="446.37054"
         r="10.039318" /><g
         id="g2672"
         transform="translate(94.016789)"><path
           style="fill:#e8491d;fill-opacity:1;stroke-width:0.264583"
           d="m 79.029628,446.95622 c -1.258943,-0.99028 -1.458828,-1.90303 -1.458828,-6.66155 0,-3.45064 -0.07798,-4.40645 -0.379962,-4.65707 -0.437169,-0.36282 -1.458572,0.0417 -1.491264,0.59059 -0.01053,0.17678 -0.04955,1.21439 -0.08671,2.30579 -0.103365,3.03581 -0.112755,3.07976 -0.843708,3.94845 -0.60551,0.71961 -0.846942,0.81405 -2.080985,0.81405 -1.701451,0 -2.649914,-0.6426 -3.044283,-2.06256 -0.149722,-0.53908 -0.272886,-3.45069 -0.273696,-6.47025 l -0.0015,-5.49011 h -7.9375 c -7.546525,0 -7.9375,-0.0241 -7.9375,-0.48946 0,-0.26921 0.357187,-0.98256 0.79375,-1.58521 l 0.79375,-1.09574 0.396873,-0.0538 0.855649,-0.44302 c 0.505529,-0.26174 1.209247,-1.03659 1.719792,-1.89362 1.013076,-1.70062 2.222891,-2.41353 4.40255,-2.59428 0.922409,-0.0765 1.771296,-0.34447 2.362835,-0.7459 0.50777,-0.34459 1.500899,-0.79807 2.206951,-1.00774 1.124931,-0.33407 1.471977,-0.33225 2.805477,0.0147 0.836962,0.21778 1.77142,0.55931 2.076577,0.75895 0.489704,0.32039 0.722644,0.27998 1.984375,-0.34418 2.18907,-1.08291 4.898882,-0.77506 6.721211,0.76356 0.313065,0.26433 1.188037,0.50272 2.14254,0.58376 2.144123,0.18203 3.584355,1.08852 4.453017,2.80274 0.446799,0.88172 0.913574,1.39282 1.490136,1.63163 1.215353,0.50342 2.588202,2.03085 2.914518,3.2427 0.155408,0.57715 0.271182,3.12965 0.257275,5.67223 -0.02574,4.70625 -0.18443,5.57872 -1.162264,6.39025 -0.690153,0.57277 -2.151814,0.65364 -3.160742,0.17488 -1.193932,-0.56657 -1.775105,-1.7705 -1.775105,-3.67723 0,-1.18459 -0.09994,-1.52554 -0.511773,-1.74595 -0.661871,-0.35422 -0.697235,-0.35 -1.18912,0.14189 -0.347281,0.34728 -0.415774,1.20296 -0.415774,5.19427 v 4.77851 l -0.94488,0.89114 c -1.156541,1.09076 -2.546339,1.21063 -3.681709,0.31754 z M 63.233127,426.16471 c -0.07513,-0.90779 -0.149635,-0.99219 -0.875868,-0.99219 -0.726234,0 -0.800735,0.0844 -0.875869,0.99219 -0.08102,0.97896 -0.06934,0.99219 0.875869,0.99219 0.945213,0 0.956889,-0.0132 0.875868,-0.99219 z M 77.5708,425.17252 c 0,-0.90399 -0.02519,-0.92604 -1.058333,-0.92604 -1.033134,0 -1.058333,0.022 -1.058333,0.92604 0,0.904 0.02519,0.92604 1.058333,0.92604 1.033134,0 1.058333,-0.022 1.058333,-0.92604 z"
           id="path2676" /><path
           style="fill:#0a0908;stroke-width:0.264583"
           d="m 53.914971,457.26366 c -0.269542,-1.35179 -0.999974,-3.22776 -1.11244,-3.44646 0,0 0.288646,-0.28544 0.703534,-0.75558 l 0.606295,-0.68703 0.847114,0.6725 c 0.94548,0.75059 1.84726,0.71876 2.64731,-0.0813 1.111258,-1.11126 0.876797,-1.46723 -0.966375,-1.46723 -1.435092,0 -1.787494,-0.2947 -1.787494,-0.2947 0,0 0.389743,-0.8304 0.736546,-1.61116 0,0 1.068241,0.0538 16.011051,0.0538 17.695532,0 17.642274,0.005 19.657907,-1.72064 1.770226,-1.51525 2.353688,-3.07365 2.971482,-7.93665 0.295788,-2.32833 0.538028,-4.32263 0.538308,-4.43177 2.81e-4,-0.10914 -0.654336,-0.19844 -1.4547,-0.19844 h -1.455208 v -1.0484 -1.04841 l 2.447395,-0.0761 2.447396,-0.0761 v -0.79375 -0.79375 l -2.38125,-0.13229 -2.55032,-0.13229 -0.08212,-0.99219 -0.08212,-0.99219 h 2.57943 c 2.736897,0 3.734094,0.36078 4.363979,1.57884 0.760233,1.47013 0.240705,3.33943 -1.097581,3.9492 -0.339752,0.1548 -0.618358,0.3733 -0.619123,0.48556 -7.94e-4,0.11226 -0.292161,2.36947 -0.647544,5.01602 -0.666316,4.96209 -0.998093,6.02974 -2.477627,7.97296 -0.367929,0.48323 -1.184188,1.23309 -1.813909,1.66636 -1.001615,0.68912 -1.145069,0.91035 -1.145934,1.76721 -5.3e-4,0.53872 -0.243639,1.37749 -0.540213,1.86393 -0.40136,0.65833 -1.575465,5.14756 -1.575465,6.02384 0,0.0567 -0.825415,0.10317 -1.834253,0.10317 -2.088988,0 -1.862709,0.2828 -2.540473,-3.175 -0.242449,-1.23693 -0.597331,-2.42755 -0.788628,-2.64583 -0.191296,-0.21829 -0.454797,-0.8136 -0.58556,-1.32292 l -0.237746,-0.92604 -11.16188,-0.069 c -8.838425,-0.0547 -11.163086,5.3e-4 -11.167687,0.26458 -0.0032,0.18348 -0.263779,0.86938 -0.579075,1.52423 -0.315296,0.65484 -0.818697,2.32172 -1.118669,3.70417 l -0.545404,2.51354 -1.859436,0.0765 -1.859439,0.0765 z m 2.704745,-0.53957 c 0.259228,-0.94934 0.243065,-0.99219 -0.374242,-0.99219 -0.566084,0 -0.625629,0.0892 -0.485741,0.7276 0.379063,1.72995 0.453586,1.75288 0.859983,0.26459 z m 30.479696,0.52916 c 0.0021,-0.1819 0.07541,-0.59862 0.163153,-0.92604 0.128661,-0.48011 0.05116,-0.59531 -0.40049,-0.59531 -0.582734,0 -0.662095,0.25362 -0.39326,1.25677 0.16919,0.63134 0.624506,0.82237 0.630597,0.26458 z m 0.632227,-3.93907 c 0.363405,-0.16558 0.779534,-0.64183 0.92473,-1.05833 l 0.263988,-0.75728 h -1.684388 c -2.364629,0 -2.608792,0.1219 -2.123565,1.06022 0.554776,1.07282 1.392376,1.31438 2.619235,0.75539 z m -44.300037,-1.35259 c -1.677207,-0.8473 -2.45287,-2.09946 -2.30224,-3.71654 0.209901,-2.25336 2.061297,-3.62565 4.891461,-3.62565 4.000349,0 6.331032,3.23676 4.32486,6.0062 -1.393743,1.92401 -4.544849,2.53288 -6.914081,1.33599 z m 4.588981,-1.9828 c 2.441406,-1.42017 -0.216773,-4.2028 -3.104442,-3.24978 -0.85808,0.28319 -2.005758,1.35895 -2.005758,1.88006 0,0.5262 1.282511,1.62735 2.120852,1.82095 1.182761,0.27314 1.940798,0.15871 2.989348,-0.45123 z m -6.553986,-5.7152 c -0.277796,-0.20313 -0.422573,-0.59019 -0.367279,-0.98193 0.07366,-0.52181 0.244496,-0.64664 0.885024,-0.64664 0.664318,0 0.807122,0.11575 0.875753,0.70981 0.103885,0.89922 -0.697572,1.42764 -1.393498,0.91876 z m 7.69075,-0.32482 c -0.250084,-0.65171 0.314304,-1.43604 1.033346,-1.43604 0.465577,0 0.692624,0.18134 0.80935,0.64642 0.08923,0.35554 0.08447,0.77225 -0.01058,0.92604 -0.27039,0.4375 -1.651346,0.33468 -1.832123,-0.13642 z m -3.667276,-1.72181 c -0.615851,-0.35871 -0.589018,-1.21568 0.04875,-1.557 0.281475,-0.15064 0.570626,-0.2739 0.642559,-0.2739 0.219581,0 0.962335,0.81685 0.962335,1.05834 0,0.27345 -0.758731,1.06159 -1.011087,1.05029 -0.09875,-0.004 -0.387898,-0.12941 -0.642559,-0.27773 z m 1.719792,-5.74391 c -0.517514,-0.0537 -0.859896,-0.23654 -0.859896,-0.45915 0,-0.20344 -0.461541,-0.82684 -1.025646,-1.38533 -1.262058,-1.24951 -1.55306,-2.34538 -0.956583,-3.60237 0.531859,-1.12081 1.761632,-1.75264 3.411278,-1.75264 H 48.9958 v -4.10104 -4.10104 h -3.548463 c -3.236867,0 -3.540681,-0.0407 -3.459827,-0.46302 0.04875,-0.25466 0.09775,-0.67138 0.10888,-0.92604 0.0182,-0.41619 0.368134,-0.46302 3.459827,-0.46302 H 48.9958 v -4.10104 -4.10105 l -2.579687,-0.002 c -2.950955,-0.002 -4.307852,-0.30523 -5.530013,-1.23742 -1.058531,-0.80738 -1.944467,-2.57136 -1.944467,-3.87161 v -0.9748 h 5.027084 5.027083 v -4.10104 -4.10105 h 3.035816 3.035819 l 0.07303,4.0349 0.07304,4.0349 5.129392,0.072 5.12939,0.072 -0.160933,1.35884 c -0.205854,1.73811 -1.180579,3.21391 -2.623667,3.9724 -0.942149,0.4952 -1.651137,0.60762 -4.378494,0.69426 l -3.254314,0.10337 0.05179,1.95681 0.05179,1.9568 h 3.533251 3.533249 v 1.05834 1.05833 H 58.67582 55.126678 l -0.0329,4.51425 -0.0329,4.51424 -0.783582,1.0817 c -0.430969,0.59494 -0.783582,1.30197 -0.783582,1.57118 0,0.46536 0.390975,0.48946 7.9375,0.48946 h 7.9375 v 1.05834 1.05833 H 58.024029 c -12.164518,0 -12.224132,0.007 -11.810384,1.31022 0.169847,0.53514 0.314598,0.54186 11.663527,0.54186 h 11.491545 v 1.05834 1.05833 H 58.754525 c -10.482167,0 -10.612472,0.007 -10.475881,0.5289 0.166175,0.63546 0.04657,0.70094 -1.068781,0.58517 z m 6.019271,-8.25782 V 427.1569 H 52.1708 51.112467 v 1.05833 1.05833 h 1.058333 1.058334 z m -0.05017,-4.03489 0.08212,-0.99219 H 52.18678 c -1.046398,0 -1.074306,0.0235 -1.074306,0.90399 0,0.97101 0.281464,1.21173 1.322917,1.1314 0.562252,-0.0434 0.673774,-0.19982 0.743577,-1.0432 z m 0.05017,-4.0432 c 0,-1.03817 -0.405443,-1.33715 -1.455801,-1.07353 -0.546431,0.13715 -0.660866,0.32535 -0.660866,1.08687 0,0.89811 0.0263,0.921 1.058333,0.921 1.034926,0 1.058334,-0.0207 1.058334,-0.93434 z m -0.05017,-4.15889 0.08212,-0.99219 H 52.18678 51.112474 v 1.07431 1.0743 l 0.992187,-0.0821 c 0.938308,-0.0777 0.996646,-0.136 1.074307,-1.07431 z m 0.05017,-4.03489 c 0,-0.904 -0.02519,-0.92605 -1.058334,-0.92605 -1.033134,0 -1.058333,0.022 -1.058333,0.92605 0,0.90399 0.02519,0.92604 1.058333,0.92604 1.033135,0 1.058334,-0.022 1.058334,-0.92604 z m 8.975531,-3.72769 c 1.714336,-1.44252 1.79037,-1.43169 -10.053264,-1.43169 -10.122505,0 -10.86133,0.0311 -10.779941,0.45372 0.04806,0.24954 0.491114,0.72579 0.98457,1.05833 0.891166,0.60056 0.958094,0.60462 9.96589,0.60462 h 9.068697 z m -9.025704,-4.40825 0.08212,-0.99219 h -1.074304 -1.074306 v 1.07431 1.0743 l 0.992187,-0.0821 c 0.938308,-0.0777 0.996646,-0.13599 1.074307,-1.0743 z m 0.05017,-4.0349 c 0,-0.90399 -0.02519,-0.92604 -1.058334,-0.92604 -1.033134,0 -1.058333,0.0221 -1.058333,0.92604 0,0.904 0.02519,0.92604 1.058333,0.92604 1.033135,0 1.058334,-0.022 1.058334,-0.92604 z m 8.252256,26.39219 c 0.07513,-0.90779 0.149635,-0.99219 0.875869,-0.99219 0.726233,0 0.800735,0.0844 0.875868,0.99219 0.08102,0.97896 0.06934,0.99219 -0.875868,0.99219 -0.945214,0 -0.95689,-0.0132 -0.875869,-0.99219 z m 13.972744,-0.99219 c 0,-0.90399 0.02519,-0.92604 1.058333,-0.92604 1.033134,0 1.058333,0.022 1.058333,0.92604 0,0.904 -0.02519,0.92604 -1.058333,0.92604 -1.033134,0 -1.058333,-0.022 -1.058333,-0.92604 z"
           id="path2674" /></g></g></g></svg>
