<svg width="195" height="56" viewBox="0 0 195 56" fill="none" xmlns="http://www.w3.org/2000/svg">
<path d="M74.3875 14.6182C74.6269 14.5784 75.2655 14.5585 76.3032 14.5585C77.3808 14.5585 78.6579 14.7582 80.1346 15.1577C81.6512 15.5172 83.1079 16.1366 84.5048 17.0156C85.9415 17.8546 87.079 19.1131 87.9171 20.791C88.7951 22.4291 89.2341 24.3868 89.2341 26.6641C89.2341 30.4196 87.7774 33.456 84.864 35.7733C81.9505 38.0905 78.0992 39.2492 73.3099 39.2492C73.3099 47.0399 71.933 50.9353 69.1792 50.9353C67.3433 50.9353 66.4254 50.1563 66.4254 48.5981C66.4254 48.1187 66.6649 47.4595 67.1438 46.6205C67.6227 45.7815 67.9619 44.8226 68.1615 43.7439C68.3611 42.6651 68.5207 40.9273 68.6404 38.5301C67.0041 38.0107 66.1859 37.2915 66.1859 36.3726C66.1859 35.4537 66.605 34.9943 67.4431 34.9943C67.8821 34.9943 68.3211 35.0541 68.7601 35.174C69.279 24.5066 69.6382 18.6136 69.8377 17.495C67.5628 18.0543 65.6671 18.9732 64.1505 20.2517C62.6738 21.5302 61.9355 23.0484 61.9355 24.8063C61.9355 25.8052 61.7159 26.5842 61.2769 27.1435C60.8778 27.7029 60.359 27.9826 59.7204 27.9826C58.5231 27.9826 57.9245 27.3033 57.9245 25.9449C57.9245 23.2681 59.1018 20.9708 61.4565 19.0531C63.8512 17.0954 66.8245 15.777 70.3765 15.0978C71.1348 12.5408 72.1924 11.2624 73.5494 11.2624C74.1081 11.2624 74.3875 12.3811 74.3875 14.6184V14.6182ZM84.7442 28.342C84.7442 24.7463 83.7066 22.0095 81.6312 20.1317C79.5958 18.2139 77.1213 17.1951 74.2079 17.0753C73.6092 24.1469 73.3099 30.799 73.3099 37.0316C73.8687 37.1116 74.3077 37.1517 74.627 37.1517C77.9794 37.1517 80.4938 36.2927 82.17 34.5748C83.8861 32.8568 84.7442 30.7793 84.7442 28.3422V28.342Z" fill="#EA5B0C"/>
<path d="M95.828 49.6167C93.5931 49.6167 91.8171 48.7777 90.5 47.0997C89.183 45.3817 88.5244 43.4441 88.5244 41.2866C88.5244 36.9318 89.4424 33.6356 91.2782 31.3983C93.1141 29.161 95.4888 28.0423 98.4023 28.0423C99.7592 28.0423 100.877 28.4218 101.755 29.1809C102.633 29.9001 103.072 30.8989 103.072 32.1774C103.072 34.5746 102.054 36.5922 100.019 38.2302C98.0231 39.8283 95.5686 40.6673 92.6552 40.7472C92.8148 42.3054 93.3336 43.6638 94.2117 44.8225C95.1296 45.9411 96.1872 46.5004 97.3845 46.5004C98.5818 46.5004 99.6594 46.2208 100.617 45.6614C101.575 45.1021 102.453 44.3031 103.251 43.2643C104.928 41.0669 106.364 38.5698 107.562 35.7731C107.881 35.0539 108.12 34.5346 108.28 34.215C108.48 33.8953 108.679 33.7353 108.879 33.7353C109.118 33.7353 109.238 33.8953 109.238 34.215C109.238 36.2127 108.021 39.209 105.586 43.2043C102.952 47.4792 99.6993 49.6167 95.828 49.6167V49.6167ZM92.6552 39.3089C95.0099 38.9094 96.726 38.1503 97.8036 37.0316C98.9211 35.9129 99.4799 34.4547 99.4799 32.6568C99.4799 30.859 98.9011 29.96 97.7437 29.96C96.3469 29.96 95.1695 30.9389 94.2117 32.8966C93.2538 34.8143 92.735 36.9517 92.6552 39.3089Z" fill="#EA5B0C"/>
<path d="M128.412 11.743C126.935 11.743 125.597 12.7619 124.4 14.7995C122.165 18.5551 120.869 23.8902 120.51 30.8021C120.51 30.8021 120.479 30.9004 120.42 30.9924C120.36 31.0843 120.04 31.1346 119.82 31.6194C119.82 31.6203 119.821 31.6215 119.82 31.6224C119.538 32.238 118.173 35.3027 117.088 37.6924C115.93 40.2893 114.754 42.4093 113.557 44.0474C112.359 45.6856 111.403 46.5212 110.685 46.5621C110.206 46.5621 109.965 45.7634 109.965 44.1653C109.965 41.1689 110.206 36.7559 110.685 30.9228C112.441 30.5632 114.075 30.0435 115.591 29.3643C117.108 28.6451 117.847 28.0841 117.807 27.6847C117.807 27.2449 117.449 27.0251 116.731 27.0251C116.491 27.0251 115.711 27.3278 114.394 27.9268C113.117 28.526 111.941 28.9255 110.863 29.1252C111.422 22.8926 111.701 19.3956 111.701 18.6365C111.701 16.9984 111.443 16.1791 110.924 16.1791C110.325 16.1791 109.706 16.5199 109.068 17.1989C108.429 17.8781 108.051 18.5976 107.931 19.3567C107.452 22.3132 107.033 25.2288 106.673 28.1054C106.035 27.7856 105.296 27.624 104.458 27.624C103.619 27.624 103.2 27.9443 103.2 28.5833C103.32 29.8218 104.379 30.6412 106.374 31.0405C105.815 36.5541 105.534 40.7705 105.534 43.687C105.534 46.6036 105.716 48.3212 106.075 48.8406C106.474 49.3595 107.75 49.6184 109.905 49.6184C112.1 49.6184 114.775 46.2622 117.928 39.5503C118.935 37.4303 120.168 34.2475 120.538 33.1799C120.687 32.8496 120.456 32.921 120.449 32.8988C120.449 39.5309 120.848 44.0263 121.646 46.3835C122.005 47.5421 122.566 48.4817 123.324 49.2009C124.122 49.88 124.92 50.2177 125.718 50.2177C127.235 50.2177 128.651 49.5982 129.968 48.3596C132.642 45.7228 135.177 39.4129 137.571 29.4247C137.571 35.4576 138.011 40.4314 138.889 44.3468C139.807 48.2622 141.183 50.2177 143.019 50.2177C145.573 50.2177 148.169 48.0008 150.803 43.566C153.477 39.1313 154.814 33.3381 154.814 26.1866C154.814 23.1103 154.474 20.1947 153.796 17.438C153.437 15.8798 152.838 14.6201 152 13.6612C151.162 12.6625 150.124 12.1633 148.886 12.1633C148.407 12.1633 147.988 12.363 147.629 12.7625C147.309 13.1221 147.151 13.6006 147.151 14.1999C147.151 15.4783 147.849 16.8174 149.246 18.2157C150.004 18.9748 150.561 19.6355 150.921 20.1948C151.838 21.7529 152.299 24.7098 152.299 29.0646C152.299 32.8601 151.481 36.6536 149.844 40.4491C148.208 44.2446 146.712 46.1444 145.355 46.1444C144.357 46.1444 143.498 44.0274 142.78 39.7924C142.061 35.5175 141.703 30.5816 141.703 24.9883L142.06 20.555C142.06 19.3962 141.544 18.8179 140.506 18.8179C140.108 18.8179 139.389 19.1762 138.351 19.8952C137.313 20.6143 136.775 21.2546 136.734 21.8138C136.375 25.6093 135.597 29.4645 134.4 33.3799C133.243 37.2952 132.043 40.4106 130.806 42.7279C129.568 45.0052 128.571 46.1444 127.813 46.1444C126.895 46.1444 126.118 44.048 125.479 39.8529C125.16 37.7354 124.998 35.3365 124.998 32.6597C127.473 31.8606 129.33 29.9844 130.567 27.0279C131.804 24.0714 132.423 20.9737 132.423 17.7376C132.423 13.7423 131.085 11.7457 128.411 11.7457L128.412 11.743ZM129.071 14.6179C129.55 14.6179 129.928 15.2374 130.207 16.476C130.327 17.1951 130.389 18.3139 130.389 19.8321C130.389 21.3103 129.908 23.348 128.95 25.9449C128.032 28.5019 126.715 30.1198 124.999 30.799C125.119 27.3232 125.6 23.7674 126.438 20.1317C127.316 16.456 128.193 14.6179 129.071 14.6179V14.6179Z" fill="#EA5B0C"/>
<path d="M162.005 49.6167C159.77 49.6167 157.994 48.7777 156.677 47.0997C155.36 45.3817 154.702 43.4441 154.702 41.2866C154.702 36.9318 155.62 33.6356 157.456 31.3983C159.292 29.161 161.666 28.0423 164.58 28.0423C165.937 28.0423 167.054 28.4218 167.932 29.1809C168.81 29.9001 169.249 30.8989 169.249 32.1774C169.249 34.5746 168.231 36.5922 166.196 38.2302C164.2 39.8283 161.746 40.6673 158.833 40.7472C158.992 42.3054 159.511 43.6638 160.389 44.8225C161.307 45.9411 162.365 46.5004 163.562 46.5004C164.759 46.5004 165.837 46.2208 166.795 45.6614C167.752 45.1021 168.631 44.3031 169.429 43.2643C171.105 41.0669 172.542 38.5698 173.739 35.7731C174.058 35.0539 174.298 34.5346 174.457 34.215C174.657 33.8953 174.857 33.7353 175.056 33.7353C175.295 33.7353 175.415 33.8953 175.415 34.215C175.415 36.2127 174.198 39.209 171.763 43.2043C169.129 47.4792 165.877 49.6167 162.005 49.6167H162.005ZM158.833 39.3089C161.187 38.9094 162.903 38.1503 163.981 37.0316C165.098 35.9129 165.657 34.4547 165.657 32.6568C165.657 30.859 165.078 29.96 163.921 29.96C162.524 29.96 161.347 30.9389 160.389 32.8966C159.431 34.8143 158.912 36.9517 158.833 39.3089Z" fill="#EA5B0C"/>
<path d="M181.889 28.6416C183.725 28.6416 185.242 29.3208 186.439 30.6792C187.637 31.9976 188.255 33.8554 188.295 36.2526C189.931 35.7731 191.368 35.1938 192.605 34.5146C193.882 33.8354 194.561 33.4959 194.641 33.4959C194.88 33.4959 195 33.6956 195 34.0951C195 34.4946 194.421 35.1139 193.264 35.9529C192.146 36.7919 190.45 37.6309 188.175 38.4699C187.696 42.0257 186.26 44.7825 183.865 46.7401C181.47 48.6579 179.076 49.6167 176.681 49.6167C174.287 49.6167 172.69 48.7378 171.892 46.9799C171.094 45.182 170.695 42.3654 170.695 38.5299C170.695 34.6945 170.974 31.0587 171.533 27.6228C172.091 24.1869 172.81 21.4901 173.688 19.5324C174.566 17.5348 175.464 16.0166 176.382 14.9778C177.34 13.8991 178.238 13.3596 179.076 13.3596C179.475 13.3596 179.834 13.8391 180.153 14.798C180.513 15.7569 180.692 16.9355 180.692 18.3338C180.692 21.4102 180.133 25.006 179.016 29.1211C179.774 28.8013 180.732 28.6414 181.889 28.6414L181.889 28.6416ZM184.583 39.4288C184.264 39.4686 183.586 39.4885 182.548 39.4885C181.55 39.4885 180.433 39.1489 179.196 38.4697C177.998 37.7506 177.18 36.7717 176.741 35.5332C176.342 36.532 175.883 37.4908 175.364 38.4097C175.444 41.4461 175.684 43.6236 176.082 44.942C176.482 46.2605 177.12 46.9197 177.998 46.9197C179.395 46.9197 180.752 46.3404 182.069 45.1818C183.426 43.9832 184.264 42.0655 184.583 39.4286V39.4288ZM179.255 19.4125C179.255 17.7345 179.036 16.8955 178.597 16.8955C178.238 16.8955 177.799 17.7745 177.28 19.5324C176.801 21.2503 176.342 23.6076 175.903 26.604C175.504 29.5605 175.304 32.497 175.304 35.4135C177.938 27.9424 179.255 22.6087 179.255 19.4125V19.4125ZM180.932 30.799C180.373 30.799 179.914 30.9788 179.555 31.3384C179.235 31.6581 179.076 32.0976 179.076 32.6568C179.076 33.8954 179.614 34.9341 180.692 35.7731C181.809 36.5721 183.146 36.9717 184.703 36.9717C184.663 35.3337 184.344 33.8954 183.745 32.6568C183.146 31.4183 182.209 30.799 180.931 30.799H180.932Z" fill="#EA5B0C"/>
<path d="M8.79509 27.715C9.18188 27.8019 9.89429 28.0105 10.7199 28.5688C11.2332 28.916 11.73 29.3585 12.1609 29.8827C12.2167 29.9504 12.2723 30.0208 12.3274 30.0928C12.7339 30.6269 13.0632 31.2108 13.2535 31.8059C13.4176 32.3196 13.459 32.7839 13.396 33.1624C13.3364 33.5208 13.1378 33.9568 12.7427 34.408C12.3481 34.8588 11.7916 35.284 11.0945 35.6238C10.3631 35.9806 9.58105 36.1918 8.83395 36.2627C8.80358 36.2656 8.77377 36.2681 8.74382 36.2681C8.0124 36.3268 7.26305 36.2521 6.572 36.0179C5.80011 35.7875 5.13991 35.4535 4.60071 35.0522C4.05787 34.6484 3.64521 34.182 3.3558 33.6903C3.05842 33.1851 2.89031 32.6521 2.83602 32.1156C2.77863 31.5482 2.8472 30.9653 3.03481 30.3808C3.24022 29.7418 3.54647 29.2586 3.87376 28.8966C4.26023 28.4694 4.70017 28.1831 5.12171 27.989C5.32451 27.8957 5.52542 27.8227 5.71862 27.764C6.06331 27.66 6.41246 27.5949 6.75721 27.5624C7.61028 27.4818 8.36427 27.605 8.79513 27.7122L8.79509 27.715ZM9.60972 24.6717C9.01421 24.5036 7.8916 24.2135 6.5137 24.2999C5.9489 24.3372 5.34778 24.4343 4.73905 24.6285C4.3976 24.7373 4.03705 24.8818 3.6709 25.0717C2.90238 25.4702 2.11235 26.0683 1.45289 26.9288C0.892833 27.6597 0.444972 28.558 0.194856 29.6222C-0.0330937 30.5921 -0.0663463 31.5848 0.123186 32.5548C0.302274 33.4717 0.674515 34.3364 1.22422 35.1091C1.75729 35.8583 2.44621 36.5053 3.25921 37.0262C4.06613 37.543 4.98825 37.9316 5.99461 38.1782C6.99872 38.4011 8.00576 38.4193 8.93916 38.3185C8.97752 38.3143 9.01647 38.3078 9.05526 38.3078C10.0107 38.1942 11.0093 37.9366 11.9673 37.5072C12.8747 37.1007 13.6811 36.5713 14.3274 35.9411C14.9708 35.3137 15.4579 34.5844 15.7074 33.7853C15.9713 32.9408 15.9642 32.0331 15.7879 31.1784C15.5826 30.1837 15.1513 29.2607 14.6322 28.4758C14.5604 28.3675 14.4877 28.2625 14.4144 28.1612C13.8514 27.3838 13.187 26.7116 12.4792 26.1645C11.3262 25.2731 10.2615 24.8669 9.60972 24.6744V24.6717Z" fill="white"/>
<path d="M34.1262 21.9598C35.2502 22.8113 36.6963 23.6552 38.8648 24.3769C40.4384 24.9006 41.6903 25.1575 43.3122 25.6001C44.647 25.9643 45.8269 26.3627 46.8396 26.9846C47.0442 27.1104 47.2414 27.2447 47.431 27.3892C47.6873 27.5846 47.9393 27.8057 48.1829 28.0597C48.5756 28.4687 48.9633 28.9791 49.3248 29.6376C49.9525 30.7842 50.4763 32.0438 50.6922 33.3691C50.8889 34.5762 50.8398 35.8812 50.3358 37.2933C49.8551 38.6399 48.9219 40.1922 47.1999 41.9208C45.5285 43.5987 43.1187 45.437 39.6763 47.4001C36.2923 49.3298 33.4763 50.4754 31.1411 51.0523C28.8296 51.6234 27.0448 51.6241 25.6553 51.3303C24.2718 51.0378 23.1814 50.4332 22.2747 49.6496C21.3336 48.8362 20.5579 47.8001 19.8877 46.6514C19.8771 46.6311 19.8664 46.6108 19.8504 46.5909C19.5302 46.0309 19.3097 45.4972 19.1665 44.9804C19.0242 44.468 18.9528 43.9538 18.9427 43.4215C18.9214 42.3797 19.134 41.2917 19.511 39.9679C19.8653 38.7234 20.3546 37.3468 20.7244 35.815C20.9061 35.0636 21.0569 34.2685 21.1337 33.4382C21.2099 32.6093 21.212 31.7459 21.0964 30.8515C20.9211 29.5781 20.9536 28.4739 21.1177 27.5174C21.2839 26.5444 21.5893 25.7055 21.9685 24.9834C22.3634 24.2322 22.8421 23.6007 23.3368 23.078C23.8638 22.521 24.4083 22.0879 24.8889 21.7651C25.4312 21.4008 26.0668 21.0773 26.7366 20.8299C27.5447 20.5314 28.338 20.3663 29.0717 20.3123C29.3845 20.2894 29.6796 20.2867 29.9545 20.3006C30.5565 20.3304 31.1124 20.4368 31.6181 20.5934C32.8078 20.9619 33.6403 21.5834 34.1237 21.9599L34.1262 21.9598ZM35.7529 19.7214C35.0828 19.2581 33.8863 18.5798 32.2743 18.1861C31.59 18.0189 30.8583 17.9087 30.0766 17.8702C29.7196 17.8526 29.3405 17.8488 28.9386 17.8656C27.9957 17.9045 26.9904 18.0535 25.947 18.3471C25.0852 18.5896 24.2448 18.9182 23.4765 19.3118C22.7943 19.6613 22.0111 20.1533 21.2293 20.8251C20.4947 21.4563 19.7454 22.2602 19.0937 23.2658C18.4641 24.2373 17.928 25.3937 17.589 26.7502C17.2554 28.0853 17.1196 29.5868 17.2554 31.2586C17.2981 31.8334 17.2661 32.4034 17.1782 32.9794C17.0913 33.5606 16.9491 34.1491 16.7679 34.7583C16.4002 35.9946 15.8723 37.296 15.4084 38.6936C14.9262 40.1462 14.5141 41.7189 14.4926 43.4187C14.482 44.3108 14.5784 45.2137 14.8113 46.1282C15.0457 47.0486 15.4097 47.9476 15.9042 48.8287C15.9202 48.8602 15.9415 48.8915 15.9575 48.9228C16.779 50.3604 17.8568 51.856 19.3131 53.1031C20.7591 54.3413 22.5506 55.3096 24.7601 55.7466C26.943 56.1784 29.4183 56.0694 32.2302 55.3343C35.0521 54.5967 38.2271 53.2255 41.8225 51.1215C45.4867 48.9774 48.1999 46.8738 50.1668 44.8178C52.2077 42.6843 53.4564 40.5891 54.106 38.5583C54.7931 36.4101 54.7817 34.4204 54.4219 32.6673C54.0372 30.793 53.2477 29.1561 52.4504 27.8311C51.9024 26.9129 51.2959 26.1686 50.6585 25.5569C50.2657 25.1801 49.864 24.8561 49.4618 24.5751C49.165 24.3678 48.8628 24.1807 48.5569 24.0109C47.0789 23.1905 45.4925 22.769 44.0821 22.458C42.4801 22.1047 41.003 21.8503 39.7435 21.5021C37.8629 20.9821 36.6609 20.3504 35.7528 19.7215L35.7529 19.7214Z" fill="white"/>
<path d="M16.5688 17.1074C16.6034 17.5523 16.5826 18.2481 16.3792 18.9331C16.3036 19.187 16.2136 19.4046 16.1175 19.5921C16.0431 19.7372 15.966 19.8679 15.8829 19.9842C15.7354 20.1906 15.4412 20.4728 14.8963 20.7015C14.4089 20.9058 13.7604 21.0476 12.9764 21.0402C12.2132 21.0348 11.432 20.8892 10.7094 20.6161C9.92795 20.3206 9.27094 19.8963 8.77963 19.4032C8.7418 19.3658 8.70459 19.3269 8.6682 19.289C8.14228 18.7381 7.75448 18.1567 7.49187 17.5781C7.20441 16.9447 7.0674 16.3165 7.05738 15.7252C7.04726 15.1212 7.16874 14.5511 7.4026 14.0325C7.64121 13.5034 8.0027 13.0139 8.48717 12.5807C8.98106 12.139 9.50921 11.8506 10.0287 11.6779C10.5591 11.5013 11.0948 11.4405 11.6038 11.4694C11.9844 11.4907 12.3519 11.5621 12.6957 11.6741C12.818 11.7115 12.9393 11.7601 13.0589 11.8123C13.491 12.0012 13.8876 12.2662 14.215 12.6039C15.0933 13.5031 15.6341 14.2975 15.9769 14.9963C16.4302 15.9203 16.5367 16.694 16.5688 17.1077V17.1074ZM19.8108 16.8188C19.7502 16.189 19.5926 14.974 18.8921 13.5564C18.3702 12.5002 17.5981 11.4245 16.4853 10.3307C15.8186 9.67331 15.0414 9.19648 14.2405 8.88599C14.0181 8.79957 13.7944 8.72647 13.5712 8.66566C12.9439 8.49443 12.2865 8.41285 11.6218 8.42832C10.7304 8.44966 9.8247 8.64273 8.96285 9.02769C8.11521 9.40641 7.31754 9.96594 6.62296 10.7144C5.94129 11.4489 5.44365 12.2797 5.14203 13.1693C4.84689 14.0398 4.74452 14.9516 4.8286 15.8638C4.91071 16.7549 5.17001 17.6419 5.59677 18.4923C5.98644 19.2687 6.51736 20.0176 7.18592 20.7128C7.23228 20.7608 7.2794 20.8088 7.32735 20.8568C8.00664 21.5354 8.84124 22.1457 9.82241 22.6285C10.7269 23.0733 11.7251 23.3938 12.7542 23.5464C13.8046 23.7016 14.8028 23.6749 15.6949 23.4823C16.6901 23.2668 17.5327 22.8486 18.1682 22.2717C18.5163 21.9559 18.7886 21.6052 18.9956 21.2647C19.2645 20.8225 19.4611 20.3442 19.5978 19.8594C19.9527 18.6007 19.8699 17.4343 19.8108 16.8191V16.8188Z" fill="white"/>
<path d="M29.9417 10.9704C29.7634 11.3854 29.4344 12.0236 28.916 12.5652C28.6954 12.7956 28.471 12.9759 28.2531 13.1083C28.1271 13.1846 28.0002 13.2497 27.8731 13.2993C27.598 13.407 27.1616 13.4855 26.5541 13.3836C26.0117 13.2924 25.3711 13.0614 24.6974 12.6344C24.043 12.221 23.4483 11.6817 22.9709 11.0637C22.4599 10.4022 22.1181 9.69629 21.9498 9.01433C21.9365 8.96099 21.9238 8.91086 21.9115 8.85911C21.7382 8.12147 21.698 7.42399 21.7661 6.78998C21.8399 6.10332 22.0398 5.49578 22.3313 4.98366C22.6268 4.46465 23.0171 4.04091 23.4769 3.71761C23.9446 3.3885 24.4964 3.15482 25.1242 3.0292C25.7656 2.90065 26.3564 2.92151 26.8792 3.03368C27.4175 3.14943 27.899 3.36492 28.3112 3.63899C28.7374 3.92223 29.0925 4.26924 29.3702 4.64263C29.3792 4.6533 29.3883 4.66932 29.3968 4.67999C29.6566 5.03737 29.8587 5.43796 29.9766 5.86741C30.304 7.06827 30.4078 8.01814 30.3878 8.80059C30.3606 9.85466 30.1095 10.579 29.9414 10.9708L29.9417 10.9704ZM32.6967 12.2519C32.9682 11.6964 33.4811 10.5872 33.6261 9.01229C33.7347 7.83405 33.6315 6.50468 33.2332 4.99343C32.9977 4.10274 32.5819 3.30992 32.0649 2.64609C32.0474 2.62476 32.0292 2.60337 32.0115 2.5783C31.4579 1.88599 30.7559 1.29283 29.9423 0.849621C29.1533 0.419695 28.2598 0.131714 27.304 0.0353804C26.3714 -0.0584992 25.3903 0.0310963 24.4043 0.339459C23.4387 0.641368 22.5868 1.12115 21.8784 1.7503C21.1834 2.36761 20.6408 3.11612 20.2623 3.95389C19.89 4.77806 19.6789 5.68272 19.6307 6.63053C19.586 7.5058 19.6803 8.42075 19.9167 9.35048C19.9332 9.41555 19.9503 9.48066 19.9684 9.54573C20.232 10.4774 20.6703 11.412 21.2887 12.2956C21.8653 13.1193 22.5806 13.8715 23.3947 14.4899C24.2303 15.1253 25.1004 15.5715 25.9481 15.8257C26.8968 16.11 27.7971 16.1484 28.5886 15.9703C28.9481 15.8897 29.2777 15.7659 29.5698 15.623C30.0741 15.376 30.5345 15.0466 30.9432 14.6693C31.8749 13.8094 32.4234 12.8114 32.6966 12.2517L32.6967 12.2519Z" fill="white"/>
<path d="M43.5564 16.2647C43.1934 16.5336 42.587 16.9214 41.865 17.1272C41.5581 17.2147 41.2731 17.2569 41.0181 17.2596C40.8708 17.2612 40.7289 17.2489 40.5953 17.2276C40.3069 17.1796 39.8964 17.0206 39.4309 16.6242C39.016 16.2711 38.5864 15.7499 38.2246 15.0448C37.8749 14.3645 37.6364 13.6055 37.5355 12.8365C37.4284 12.0209 37.4827 11.2484 37.6712 10.5763C37.7085 10.4408 37.7484 10.3091 37.7912 10.1821C37.9976 9.56746 38.2743 9.02844 38.6013 8.57137C38.9965 8.01876 39.463 7.58913 39.9649 7.28514C40.47 6.9795 41.0134 6.79815 41.5725 6.73851C42.1395 6.6777 42.7366 6.74059 43.3494 6.938C43.9761 7.14016 44.4866 7.44798 44.8924 7.80531C45.3128 8.1755 45.6308 8.6066 45.8562 9.05435C46.2108 9.7586 46.336 10.5034 46.2925 11.164C46.2771 11.3998 46.2392 11.6345 46.1775 11.8637C45.8543 13.063 45.4636 13.9398 45.0443 14.6133C44.493 15.4989 43.8954 16.0126 43.5564 16.2639L43.5564 16.2647ZM45.286 18.7303C45.7923 18.3873 46.7866 17.68 47.6916 16.3845C48.3721 15.4106 48.9364 14.206 49.3344 12.7111C49.458 12.247 49.5253 11.782 49.5441 11.3262C49.5968 10.0484 49.2679 8.71052 48.5456 7.52182C48.0855 6.7646 47.4662 6.06962 46.6934 5.50421C45.9439 4.95598 45.0589 4.53635 44.0554 4.30133C43.0738 4.07143 42.099 4.05002 41.17 4.22978C40.2554 4.40741 39.4058 4.77602 38.6528 5.3057C37.9068 5.83057 37.263 6.5077 36.7409 7.3028C36.3096 7.95969 35.9612 8.69703 35.7043 9.49842C35.6511 9.66484 35.6014 9.83497 35.5554 10.0094C35.3091 10.9623 35.2237 12.0018 35.3218 13.0775C35.4141 14.0899 35.6667 15.1045 36.0707 16.0473C36.4876 17.0195 37.0288 17.84 37.6434 18.4804C38.3325 19.1985 39.0998 19.6762 39.8769 19.9125C40.23 20.0198 40.5777 20.0752 40.9022 20.096C41.4629 20.1333 42.0255 20.0747 42.5664 19.9514C43.8007 19.6693 44.7719 19.0786 45.2859 18.7301L45.286 18.7303Z" fill="white"/>
</svg>
