<?xml version="1.0" encoding="UTF-8" standalone="no"?>
<!-- Created with Inkscape (http://www.inkscape.org/) -->

<svg
   width="22.845703mm"
   height="22.845695mm"
   viewBox="0 0 22.845703 22.845696"
   version="1.1"
   id="svg5"
   xml:space="preserve"
   xmlns:inkscape="http://www.inkscape.org/namespaces/inkscape"
   xmlns:sodipodi="http://sodipodi.sourceforge.net/DTD/sodipodi-0.dtd"
   xmlns="http://www.w3.org/2000/svg"
   xmlns:svg="http://www.w3.org/2000/svg"><sodipodi:namedview
     id="namedview7"
     pagecolor="#ffffff"
     bordercolor="#000000"
     borderopacity="0.25"
     inkscape:showpageshadow="2"
     inkscape:pageopacity="0.0"
     inkscape:pagecheckerboard="0"
     inkscape:deskcolor="#d1d1d1"
     inkscape:document-units="mm"
     showgrid="false" /><defs
     id="defs2" /><g
     inkscape:label="Layer 1"
     inkscape:groupmode="layer"
     id="layer1"
     transform="translate(-138.12203,-92.999805)"><g
       id="g4020"
       transform="translate(5.3325402,-21.021176)"
       inkscape:export-filename="servico.svg"
       inkscape:export-xdpi="96"
       inkscape:export-ydpi="96"><path
         id="path3733"
         style="fill:none;fill-opacity:1;stroke:#4d4d4d;stroke-width:0.999998;stroke-dasharray:none;stroke-opacity:1;stop-color:#000000"
         d="m 144.21233,136.40298 v -4.07784 m 0,-13.76263 v -4.07784 m -10.95915,10.95916 h 4.07784 m 13.76263,0 h 4.07784 m -0.0363,0 a 10.922851,10.922851 0 0 1 -10.92285,10.92285 10.922851,10.922851 0 0 1 -10.92285,-10.92285 10.922851,10.922851 0 0 1 10.92285,-10.92285 10.922851,10.922851 0 0 1 10.92285,10.92285 v 0" /><g
         id="g3760"
         transform="matrix(0.99119559,0,0,0.99119559,81.090983,33.781211)"><circle
           style="fill:#ff6600;stroke:none;stroke-width:0.517204;stop-color:#000000"
           id="circle3748"
           cx="63.862114"
           cy="93.651398"
           r="3.2744243" /><ellipse
           style="fill:#ff6600;stroke:none;stroke-width:0.188796;stop-color:#000000"
           id="ellipse3750"
           cx="85.553192"
           cy="68.57444"
           rx="1.0008645"
           ry="1.4274402"
           transform="rotate(15)" /><ellipse
           style="fill:#ff6600;stroke:none;stroke-width:0.160036;stop-color:#000000"
           id="ellipse3752"
           cx="102.81843"
           cy="44.092091"
           rx="0.84840131"
           ry="1.209996"
           transform="rotate(30)" /><ellipse
           style="fill:#ff6600;stroke:none;stroke-width:0.188796;stop-color:#000000"
           id="ellipse3754"
           cx="-37.471054"
           cy="101.53868"
           rx="1.0008645"
           ry="1.4274402"
           transform="matrix(-0.96592583,0.25881905,0.25881905,0.96592583,0,0)" /><ellipse
           style="fill:#ff6600;stroke:none;stroke-width:0.160036;stop-color:#000000"
           id="ellipse3756"
           cx="-7.4820933"
           cy="107.77413"
           rx="0.84840131"
           ry="1.209996"
           transform="matrix(-0.8660254,0.5,0.5,0.8660254,0,0)" /><path
           style="fill:none;stroke:#ffffff;stroke-width:0.499999;stop-color:#000000"
           d="m 60.59064,93.600266 h 1.901786 l 0.651865,-1.129059 1.257604,2.178238 0.618358,-1.071028 h 2.118918"
           id="path3758"
           sodipodi:nodetypes="cccccc" /></g></g></g></svg>
