<svg width="26" height="22" viewBox="0 0 26 22" fill="none" xmlns="http://www.w3.org/2000/svg">
<path d="M8.20373 21.6173C17.9891 21.6173 23.342 13.3163 23.342 6.13024C23.342 5.89795 23.342 5.66234 23.3323 5.43005C24.3744 4.65766 25.2739 3.7014 25.9885 2.60607C25.015 3.04551 23.9834 3.33514 22.9271 3.46554C24.0397 2.78467 24.873 1.71336 25.2722 0.450756C24.2268 1.08478 23.0827 1.52986 21.8899 1.76651C21.088 0.892145 20.0268 0.312905 18.8708 0.118511C17.7148 -0.0758826 16.5284 0.12542 15.4955 0.691237C14.4625 1.25705 13.6406 2.15581 13.1571 3.24829C12.6736 4.34076 12.5554 5.56599 12.8209 6.73419C10.7056 6.6256 8.63614 6.06299 6.74686 5.08285C4.85758 4.10271 3.19063 2.72693 1.85412 1.04475C1.17563 2.2445 0.968572 3.66365 1.27499 5.01403C1.5814 6.3644 2.37832 7.54476 3.50392 8.31542C2.66045 8.28608 1.83552 8.05419 1.09567 7.63846V7.71312C1.09713 8.96994 1.52239 10.1877 2.29959 11.1606C3.07679 12.1334 4.15824 12.8017 5.36116 13.0525C4.90457 13.1812 4.43291 13.2454 3.95932 13.2433C3.62544 13.2443 3.29224 13.2126 2.96425 13.1487C3.30424 14.2306 3.96624 15.1765 4.85754 15.854C5.74884 16.5315 6.8248 16.9066 7.93471 16.9267C6.0492 18.4429 3.72011 19.2652 1.32256 19.2612C0.900096 19.2631 0.477927 19.2381 0.0584717 19.1866C2.49186 20.7749 5.31788 21.6182 8.20373 21.6173Z" fill="white"/>
</svg>
